<svg width="64" height="64" viewBox="0 0 64 64" fill="none" xmlns="http://www.w3.org/2000/svg">
<path d="M26.1155 16.9433C25.4788 20.0565 21.3308 27.2625 19.9032 29.1149C15.6876 34.5849 10.1698 38.8135 3.88026 41.4127C3.86097 41.9849 3.84168 42.5765 3.83203 43.1778C9.96723 40.6465 15.6394 37.4751 18.7938 34.7595C20.5784 33.2368 24.8132 28.6979 26.1252 26.8164C28.585 23.2473 29.6944 19.0964 30.524 15.12C30.9388 13.1221 31.0835 7.36118 30.2828 0.494629C29.1542 0.669202 27.958 0.882569 26.7522 1.11533C27.4564 8.29223 27.0512 12.4335 26.1348 16.9433H26.1155Z" fill="white"/>
<path d="M45.5143 16.3126C45.2635 20.9097 44.54 24.8667 43.5368 27.1652C41.9548 30.7828 39.929 34.1093 37.5077 37.0771C34.99 40.1709 32.1057 42.7895 28.932 44.8456C21.4366 49.7143 12.5425 51.6249 4.15967 52.682C4.22719 53.1184 4.31401 53.5452 4.41048 53.9331C10.7386 53.8458 16.3529 53.3415 20.0282 52.5268C27.8998 50.7811 35.7424 46.0773 39.6878 42.4501C43.1992 39.2302 47.7523 33.6535 49.5177 25.4195C50.5981 20.415 49.6527 9.93095 48.4179 1.64842C47.2121 1.31867 45.9677 1.04711 44.7426 0.83374C45.6976 7.41903 45.6976 12.8211 45.5047 16.3029L45.5143 16.3126Z" fill="white"/>
<path d="M14.9737 26.9034C12.3113 30.4724 8.59738 33.6729 3.94775 36.437C3.96705 37.1838 3.96705 38.0663 3.94775 39.0653C9.54274 36.5825 14.4432 32.7322 18.2343 27.7956C19.5655 26.0693 23.5013 19.1833 24.0415 16.5066C24.9097 12.2392 25.2955 8.31131 24.6492 1.54175C23.1444 1.8715 21.6588 2.23034 20.3276 2.60858C20.7713 7.40935 20.7713 12.1325 20.289 14.8675C19.6909 18.2911 17.2117 23.9162 14.9834 26.9034H14.9737Z" fill="white"/>
<path d="M41.5982 26.292C43.0355 23.0139 44.5018 13.1893 42.5532 0.493989C41.4246 0.348511 40.3442 0.232129 39.3506 0.154541C39.8811 4.91651 40.2284 9.24205 39.9583 13.4997C39.5724 19.4837 37.9615 24.7209 34.8746 29.9484C33.5241 32.2275 26.9548 38.5703 20.6266 42.6534C16.3339 45.4272 9.64888 48.0846 3.85132 49.4036C3.87061 49.7915 3.89955 50.1795 3.92849 50.548C12.0605 49.52 20.6556 47.6675 27.794 43.0317C33.6302 39.2492 38.5402 33.2944 41.6078 26.2823L41.5982 26.292Z" fill="white"/>
<path d="M5.41427 22.9174C4.74866 23.9745 2.67465 26.7289 1.19873 28.2225C1.43025 28.7656 1.6907 29.3669 1.95116 29.9779C5.59755 26.952 9.83238 21.5887 10.469 19.8333C10.5366 19.6393 10.6041 19.455 10.6716 19.2805C11.4048 17.3408 12.2151 15.1586 11.8196 6.71118C10.7102 7.44827 9.49475 8.29204 8.28893 9.16491C8.5108 12.2587 8.31787 14.2275 8.13459 15.4689C7.86449 17.3601 6.15705 21.7245 5.40462 22.9174H5.41427Z" fill="white"/>
<path d="M63.4672 21.1714C63.1489 16.9914 61.5958 10.6389 59.6376 8.3306C58.9044 7.46744 57.9012 6.58487 56.8015 5.7605C58.0748 12.0839 58.7115 17.5151 58.7308 22.2868C58.7501 28.6781 57.689 33.9638 55.4896 38.4639C53.9461 41.5965 50.8206 45.3498 46.663 49.045C42.9684 52.3328 38.8589 55.1841 35.6949 56.6874C29.8973 59.4321 21.3698 60.208 13.6333 60.208C12.4757 60.208 11.3374 60.1886 10.228 60.1595C13.8455 62.2349 18.5048 64.0001 21.5048 64.0001C33.6595 64.0001 43.3542 59.4806 48.0907 55.8921C53.8689 51.5181 59.6954 43.7399 60.9206 40.7527C64.374 32.3538 63.6987 24.4883 63.4576 21.1811L63.4672 21.1714Z" fill="white"/>
<path d="M34.7977 54.7479C41.0294 51.7995 50.5987 43.6237 53.5988 37.5039C57.4092 29.7451 57.6214 19.3968 54.2933 4.07315C53.7724 3.7531 53.2515 3.47184 52.7788 3.24878C52.1132 2.91903 51.409 2.62807 50.6759 2.36621C51.4283 7.62281 52.9235 19.746 51.6116 25.8754C49.7209 34.6526 44.8687 40.5881 41.1355 44.0213C38.7914 46.1841 35.5405 48.3954 31.9809 50.2575C28.132 52.2845 24.1576 53.7877 20.5112 54.6024C16.8455 55.4171 11.3759 55.9311 5.22144 56.0475C5.22144 56.0475 5.22144 56.0475 5.22144 56.0572C5.54942 56.6197 6.12821 57.2307 6.89994 57.8708C15.7072 58.3363 27.611 58.1521 34.817 54.7382H34.8074L34.7977 54.7479Z" fill="white"/>
<path d="M12.6588 20.0275C12.5913 20.2118 12.5237 20.3864 12.4562 20.5706C11.5205 23.1504 6.51396 29.0956 2.81934 32.0149C3.13767 32.7811 3.42707 33.5279 3.62 34.1486C7.6426 31.656 10.961 28.7271 13.2762 25.6236C15.4949 22.6461 17.7039 17.2925 18.1863 14.4994C18.6107 12.065 18.6204 7.68131 18.2345 3.25879C17.347 3.55944 16.5946 3.8601 16.0447 4.13166C15.5721 4.37412 14.81 4.81055 13.8743 5.40216C14.4338 15.3043 13.4884 17.8066 12.6492 20.0372L12.6588 20.0275Z" fill="white"/>
<path d="M3.62961 21.7633C4.24699 20.7837 5.82901 16.7297 6.05088 15.1586C6.18593 14.2178 6.33063 12.8115 6.26311 10.6973C3.60066 12.7921 1.29514 14.9452 0.648826 16.4873C-0.306181 18.7664 -0.055372 23.5769 0.436601 25.9142C1.66171 24.5176 3.11834 22.5779 3.63925 21.7536L3.62961 21.7633Z" fill="white"/>
<path d="M32.5788 15.5564C31.7396 19.5425 30.5338 24.1299 27.852 28.0287C26.4147 30.1042 22.1123 34.7207 20.1541 36.3791C16.691 39.3469 10.4304 42.8286 3.78394 45.486C3.78394 46.0679 3.78394 46.6499 3.78394 47.2318C9.23423 45.9322 15.5431 43.4009 19.4788 40.8598C25.643 36.8835 31.9615 30.7055 33.0419 28.8725C38.743 19.2031 38.4246 10.8332 37.1995 0.0387941C36.4664 0.00969852 35.8297 0 35.2992 0C34.5274 0 33.5145 0.0775881 32.357 0.213367C33.2059 7.39027 33.0226 13.3646 32.5692 15.5661L32.5788 15.5564Z" fill="white"/>
</svg>
