<svg width="75" height="47" viewBox="0 0 75 47" fill="none" xmlns="http://www.w3.org/2000/svg">
<g clip-path="url(#clip0_40000242_1428)">
<mask id="mask0_40000242_1428" style="mask-type:luminance" maskUnits="userSpaceOnUse" x="0" y="0" width="75" height="47">
<path d="M75 0H0V47H75V0Z" fill="white"/>
</mask>
<g mask="url(#mask0_40000242_1428)">
<mask id="mask1_40000242_1428" style="mask-type:luminance" maskUnits="userSpaceOnUse" x="0" y="0" width="75" height="47">
<path d="M74.9969 0H0V47H74.9969V0Z" fill="white"/>
</mask>
<g mask="url(#mask1_40000242_1428)">
<mask id="mask2_40000242_1428" style="mask-type:luminance" maskUnits="userSpaceOnUse" x="0" y="0" width="75" height="47">
<path d="M74.9786 0.0309448H0.027832V46.9845H74.9786V0.0309448Z" fill="white"/>
</mask>
<g mask="url(#mask2_40000242_1428)">
<path d="M74.9786 38.5156L69.2962 26.87H66.7027C66.7027 26.87 66.9642 27.4453 66.3704 28.8125L61.6326 38.5156H63.6169L64.9275 35.7503H71.6467L72.9481 38.5156H74.9817H74.9786ZM70.8222 34.0213H65.7397L68.2718 28.6052L70.8222 34.0213ZM57.5746 38.5156H59.359V26.87H57.2085C57.2085 26.87 57.4085 27.3649 57.4915 27.8381C57.5654 28.3145 57.5684 28.565 57.5684 28.8248V36.3628L50.8893 26.87H48.0742C48.0742 26.87 48.2742 27.3649 48.3573 27.8381C48.4311 28.3145 48.4342 28.5619 48.4342 28.8248V38.5187H50.2217V28.9176L56.9901 38.5187H57.5715L57.5746 38.5156ZM44.3208 38.5156H46.3575L40.669 26.87H38.0785C38.0785 26.87 38.337 27.4453 37.7432 28.8125L33.0053 38.5156H34.9928L36.3003 35.7503H43.0195L44.3208 38.5156ZM42.2011 34.0213H37.1187L39.6537 28.6052L42.198 34.0213H42.2011ZM28.8981 38.5156H30.6825V26.87H28.532C28.532 26.87 28.732 27.3649 28.8181 27.8381C28.892 28.3145 28.8981 28.565 28.8981 28.8248V38.5187V38.5156ZM24.8156 36.8267C25.7078 35.7596 26.1969 34.2904 26.1969 32.6943C26.1969 31.0983 25.7108 29.5826 24.8279 28.531C23.7357 27.2288 22.1051 26.5699 19.9792 26.5699C15.389 26.5699 13.7615 29.8703 13.7615 32.6943C13.7615 33.845 13.9892 35.4967 15.0691 36.8267C16.1428 38.1475 17.7949 38.8187 19.9792 38.8187C22.1636 38.8187 23.7142 38.1506 24.8156 36.8298M24.3202 32.6943C24.3202 35.4905 22.6189 37.2969 19.9792 37.2969C17.3396 37.2969 15.6382 35.5338 15.6382 32.6943C15.6382 29.8548 17.3426 28.0918 19.9792 28.0918C22.6158 28.0918 24.3202 29.8548 24.3202 32.6943ZM9.44206 38.5218H11.2265V26.8762H9.07595C9.07595 26.8762 9.27593 27.3711 9.35899 27.8443C9.43283 28.3207 9.43898 28.5681 9.43898 28.831V31.8375H2.17834V26.8793H0.027832C0.027832 26.8793 0.227807 27.3742 0.310874 27.8474C0.384711 28.3237 0.390864 28.5712 0.390864 28.8341V38.528H2.17834V33.5666H9.44206V38.528V38.5218Z" fill="white"/>
</g>
<mask id="mask3_40000242_1428" style="mask-type:luminance" maskUnits="userSpaceOnUse" x="0" y="0" width="75" height="47">
<path d="M74.9786 0.0309448H0.027832V46.9845H74.9786V0.0309448Z" fill="white"/>
</mask>
<g mask="url(#mask3_40000242_1428)">
<path d="M16.9794 45.8123C16.9794 45.3514 16.6379 45.1442 16.0103 45.1442H14.7059V46.4742H16.0103C16.641 46.4742 16.9794 46.2731 16.9794 45.8123ZM14.7028 43.4058V44.6833H15.8657C16.4441 44.6833 16.7733 44.4668 16.7733 44.0461C16.7733 43.6254 16.4441 43.4089 15.8657 43.4089H14.7028V43.4058ZM17.5517 45.8587C17.5517 46.5422 17.0348 46.9351 16.0319 46.9351H14.1367V42.9449H15.918C16.8318 42.9449 17.3425 43.3316 17.3425 43.978C17.3425 44.4111 17.121 44.7142 16.8102 44.8689C17.2594 44.9957 17.5548 45.3297 17.5548 45.8618L17.5517 45.8587Z" fill="white"/>
</g>
<mask id="mask4_40000242_1428" style="mask-type:luminance" maskUnits="userSpaceOnUse" x="0" y="0" width="75" height="47">
<path d="M74.9786 0.0309448H0.027832V46.9845H74.9786V0.0309448Z" fill="white"/>
</mask>
<g mask="url(#mask4_40000242_1428)">
<path d="M21.7665 46.4402V46.9382H18.8838V42.9449H21.6865V43.4398H19.4499V44.6678H21.4435V45.1503H19.4499V46.4402H21.7665Z" fill="white"/>
</g>
<mask id="mask5_40000242_1428" style="mask-type:luminance" maskUnits="userSpaceOnUse" x="0" y="0" width="75" height="47">
<path d="M74.9786 0.0309448H0.027832V46.9845H74.9786V0.0309448Z" fill="white"/>
</mask>
<g mask="url(#mask5_40000242_1428)">
<path d="M25.471 45.4844L24.6157 43.5295L23.7574 45.4844H25.471ZM25.671 45.9391H23.5605L23.1236 46.9382H22.5391L24.3388 42.9449H24.9018L26.7047 46.9382H26.1079L25.671 45.9391Z" fill="white"/>
</g>
<mask id="mask6_40000242_1428" style="mask-type:luminance" maskUnits="userSpaceOnUse" x="0" y="0" width="75" height="47">
<path d="M74.9786 0.0309448H0.027832V46.9845H74.9786V0.0309448Z" fill="white"/>
</mask>
<g mask="url(#mask6_40000242_1428)">
<path d="M27.3662 44.94C27.3662 43.7584 28.2615 42.8985 29.4706 42.8985C30.0828 42.8985 30.615 43.1089 30.9812 43.5202L30.612 43.879C30.3074 43.5543 29.9321 43.4058 29.4952 43.4058C28.5999 43.4058 27.9354 44.0554 27.9354 44.94C27.9354 45.8246 28.5999 46.4742 29.4952 46.4742C29.9321 46.4742 30.3074 46.3195 30.612 45.9947L30.9812 46.3535C30.6181 46.7649 30.0859 46.9815 29.4675 46.9815C28.2646 46.9815 27.3693 46.1216 27.3693 44.94H27.3662Z" fill="white"/>
</g>
<mask id="mask7_40000242_1428" style="mask-type:luminance" maskUnits="userSpaceOnUse" x="0" y="0" width="75" height="47">
<path d="M74.9786 0.0309448H0.027832V46.9845H74.9786V0.0309448Z" fill="white"/>
</mask>
<g mask="url(#mask7_40000242_1428)">
<path d="M35.6606 42.9449V46.9382H35.0914V45.1565H32.8117V46.9382H32.2456V42.9449H32.8117V44.6616H35.0914V42.9449H35.6606Z" fill="white"/>
</g>
<mask id="mask8_40000242_1428" style="mask-type:luminance" maskUnits="userSpaceOnUse" x="0" y="0" width="75" height="47">
<path d="M74.9786 0.0309448H0.027832V46.9845H74.9786V0.0309448Z" fill="white"/>
</mask>
<g mask="url(#mask8_40000242_1428)">
<path d="M42.7364 42.9449L40.992 46.9382H40.429L38.6846 42.9449H39.2968L40.7243 46.2237L42.1672 42.9449H42.7364Z" fill="white"/>
</g>
<mask id="mask9_40000242_1428" style="mask-type:luminance" maskUnits="userSpaceOnUse" x="0" y="0" width="75" height="47">
<path d="M74.9786 0.0309448H0.027832V46.9845H74.9786V0.0309448Z" fill="white"/>
</mask>
<g mask="url(#mask9_40000242_1428)">
<path d="M44.2594 42.9449H43.6934V46.9351H44.2594V42.9449Z" fill="white"/>
</g>
<mask id="mask10_40000242_1428" style="mask-type:luminance" maskUnits="userSpaceOnUse" x="0" y="0" width="75" height="47">
<path d="M74.9786 0.0309448H0.027832V46.9845H74.9786V0.0309448Z" fill="white"/>
</mask>
<g mask="url(#mask10_40000242_1428)">
<path d="M45.9053 42.9449H46.4744V46.4402H48.6219V46.9382H45.9053V42.9449Z" fill="white"/>
</g>
<mask id="mask11_40000242_1428" style="mask-type:luminance" maskUnits="userSpaceOnUse" x="0" y="0" width="75" height="47">
<path d="M74.9786 0.0309448H0.027832V46.9845H74.9786V0.0309448Z" fill="white"/>
</mask>
<g mask="url(#mask11_40000242_1428)">
<path d="M49.7295 42.9449H50.2987V46.4402H52.4492V46.9382H49.7295V42.9449Z" fill="white"/>
</g>
<mask id="mask12_40000242_1428" style="mask-type:luminance" maskUnits="userSpaceOnUse" x="0" y="0" width="75" height="47">
<path d="M74.9786 0.0309448H0.027832V46.9845H74.9786V0.0309448Z" fill="white"/>
</mask>
<g mask="url(#mask12_40000242_1428)">
<path d="M55.9012 45.4844L55.0459 43.5295L54.1906 45.4844H55.9043H55.9012ZM56.1012 45.9391H53.9907L53.5538 46.9382H52.9692L54.7659 42.9449H55.3289L57.1318 46.9382H56.535L56.0981 45.9391H56.1012Z" fill="white"/>
</g>
<mask id="mask13_40000242_1428" style="mask-type:luminance" maskUnits="userSpaceOnUse" x="0" y="0" width="75" height="47">
<path d="M74.9786 0.0309448H0.027832V46.9845H74.9786V0.0309448Z" fill="white"/>
</mask>
<g mask="url(#mask13_40000242_1428)">
<path d="M57.8146 46.4804L58.0238 46.035C58.3192 46.3041 58.8237 46.4958 59.3344 46.4958C60.0205 46.4958 60.3158 46.2267 60.3158 45.8803C60.3158 44.906 57.913 45.5215 57.913 44.0399C57.913 43.4244 58.3868 42.8985 59.4329 42.8985C59.8974 42.8985 60.3804 43.0253 60.7096 43.2511L60.5189 43.7058C60.1743 43.4831 59.7836 43.3811 59.4329 43.3811C58.756 43.3811 58.4668 43.6656 58.4668 44.0151C58.4668 44.9895 60.8696 44.3801 60.8696 45.8463C60.8696 46.4556 60.3835 46.9815 59.3313 46.9815C58.7253 46.9815 58.1284 46.7773 57.8115 46.4804H57.8146Z" fill="white"/>
</g>
<mask id="mask14_40000242_1428" style="mask-type:luminance" maskUnits="userSpaceOnUse" x="0" y="0" width="75" height="47">
<path d="M74.9786 0.0309448H0.027832V46.9845H74.9786V0.0309448Z" fill="white"/>
</mask>
<g mask="url(#mask14_40000242_1428)">
<path d="M35.6786 5.43771C35.4755 6.4306 34.1526 8.72879 33.6973 9.31958C32.3528 11.0641 30.5931 12.4127 28.5872 13.2417C28.581 13.4242 28.5749 13.6128 28.5718 13.8046C30.5285 12.9973 32.3375 11.9859 33.3435 11.1198C33.9127 10.6342 35.2633 9.18657 35.6817 8.58651C36.4662 7.44824 36.82 6.12438 37.0846 4.8562C37.2169 4.21902 37.263 2.3817 37.0077 0.191772C36.6477 0.247449 36.2662 0.315497 35.8816 0.389732C36.1062 2.67864 35.977 3.99941 35.6847 5.43771H35.6786Z" fill="white"/>
</g>
<mask id="mask15_40000242_1428" style="mask-type:luminance" maskUnits="userSpaceOnUse" x="0" y="0" width="75" height="47">
<path d="M74.9786 0.0309448H0.027832V46.9845H74.9786V0.0309448Z" fill="white"/>
</mask>
<g mask="url(#mask15_40000242_1428)">
<path d="M41.8659 5.23667C41.7859 6.70281 41.5552 7.96481 41.2352 8.69788C40.7307 9.85161 40.0846 10.9126 39.3124 11.8591C38.5094 12.8458 37.5895 13.6809 36.5773 14.3366C34.1868 15.8894 31.3503 16.4987 28.6768 16.8359C28.6983 16.9751 28.726 17.1112 28.7567 17.2349C30.775 17.2071 32.5655 17.0462 33.7377 16.7864C36.2481 16.2296 38.7494 14.7295 40.0077 13.5726C41.1275 12.5457 42.5797 10.7672 43.1427 8.14112C43.4872 6.54507 43.1857 3.2014 42.7919 0.559871C42.4074 0.454705 42.0105 0.368098 41.6198 0.300049C41.9244 2.40028 41.9244 4.12315 41.8628 5.23358L41.8659 5.23667Z" fill="white"/>
</g>
<mask id="mask16_40000242_1428" style="mask-type:luminance" maskUnits="userSpaceOnUse" x="0" y="0" width="75" height="47">
<path d="M74.9786 0.0309448H0.027832V46.9845H74.9786V0.0309448Z" fill="white"/>
</mask>
<g mask="url(#mask16_40000242_1428)">
<path d="M32.1254 8.61436C31.2763 9.75263 30.0918 10.7734 28.6089 11.6549C28.615 11.8931 28.615 12.1745 28.6089 12.4931C30.3933 11.7013 31.9562 10.4733 33.1653 8.89893C33.5898 8.34836 34.845 6.15224 35.0173 5.29854C35.2942 3.93756 35.4173 2.68485 35.2112 0.525848C34.7312 0.631015 34.2574 0.74546 33.8329 0.866092C33.9744 2.39719 33.9744 3.90354 33.8206 4.7758C33.6298 5.86767 32.8391 7.66168 32.1285 8.61436H32.1254Z" fill="white"/>
</g>
<mask id="mask17_40000242_1428" style="mask-type:luminance" maskUnits="userSpaceOnUse" x="0" y="0" width="75" height="47">
<path d="M74.9786 0.0309448H0.027832V46.9845H74.9786V0.0309448Z" fill="white"/>
</mask>
<g mask="url(#mask17_40000242_1428)">
<path d="M40.6166 8.41949C41.075 7.37402 41.5427 4.24068 40.9212 0.191786C40.5613 0.145389 40.2167 0.108272 39.8998 0.0835266C40.069 1.60225 40.1798 2.98178 40.0936 4.33966C39.9706 6.24812 39.4568 7.91841 38.4723 9.5856C38.0416 10.3125 35.9464 12.3354 33.9282 13.6376C32.5592 14.5222 30.4271 15.3697 28.5781 15.7904C28.5843 15.9141 28.5935 16.0379 28.6027 16.1554C31.1963 15.8275 33.9375 15.2367 36.2141 13.7582C38.0754 12.5519 39.6414 10.6527 40.6197 8.4164L40.6166 8.41949Z" fill="white"/>
</g>
<mask id="mask18_40000242_1428" style="mask-type:luminance" maskUnits="userSpaceOnUse" x="0" y="0" width="75" height="47">
<path d="M74.9786 0.0309448H0.027832V46.9845H74.9786V0.0309448Z" fill="white"/>
</mask>
<g mask="url(#mask18_40000242_1428)">
<path d="M29.0764 7.34308C28.8641 7.68023 28.2026 8.55867 27.7319 9.03502C27.8058 9.20823 27.8888 9.4 27.9719 9.59487C29.1348 8.62982 30.4854 6.91932 30.6885 6.35946C30.71 6.2976 30.7316 6.23883 30.7531 6.18316C30.9869 5.56453 31.2453 4.86858 31.1192 2.17447C30.7654 2.40955 30.3778 2.67865 29.9932 2.95703C30.064 3.94374 30.0024 4.57164 29.944 4.96756C29.8578 5.57072 29.3133 6.96262 29.0733 7.34308H29.0764Z" fill="white"/>
</g>
<mask id="mask19_40000242_1428" style="mask-type:luminance" maskUnits="userSpaceOnUse" x="0" y="0" width="75" height="47">
<path d="M74.9786 0.0309448H0.027832V46.9845H74.9786V0.0309448Z" fill="white"/>
</mask>
<g mask="url(#mask19_40000242_1428)">
<path d="M47.5913 6.78631C47.4897 5.45317 46.9944 3.42718 46.3699 2.69102C46.1361 2.41573 45.8161 2.13425 45.4654 1.87134C45.8715 3.88805 46.0745 5.6202 46.0807 7.14202C46.0868 9.18039 45.7484 10.8661 45.047 12.3013C44.5547 13.3004 43.5579 14.4975 42.2319 15.6759C41.0536 16.7245 39.743 17.6339 38.7339 18.1133C36.8849 18.9887 34.1652 19.2361 31.6978 19.2361C31.3287 19.2361 30.9656 19.2299 30.6118 19.2207C31.7655 19.8826 33.2515 20.4455 34.2083 20.4455C38.0847 20.4455 41.1767 19.0041 42.6873 17.8597C44.5301 16.4647 46.3883 13.984 46.7791 13.0313C47.8805 10.3527 47.6651 7.84416 47.5882 6.7894L47.5913 6.78631Z" fill="white"/>
</g>
<mask id="mask20_40000242_1428" style="mask-type:luminance" maskUnits="userSpaceOnUse" x="0" y="0" width="75" height="47">
<path d="M74.9786 0.0309448H0.027832V46.9845H74.9786V0.0309448Z" fill="white"/>
</mask>
<g mask="url(#mask20_40000242_1428)">
<path d="M38.4478 17.4947C40.4353 16.5544 43.4872 13.9469 44.444 11.9951C45.6592 9.52064 45.7269 6.22028 44.6655 1.33315C44.4994 1.23107 44.3333 1.14137 44.1825 1.07023C43.9702 0.965065 43.7456 0.872272 43.5118 0.788757C43.7518 2.46523 44.2286 6.33163 43.8102 8.28649C43.2072 11.0858 41.6597 12.9788 40.4691 14.0737C39.7215 14.7635 38.6847 15.4687 37.5495 16.0626C36.3219 16.7091 35.0544 17.1885 33.8915 17.4483C32.7224 17.7081 30.978 17.8721 29.0151 17.9092C29.0151 17.9092 29.0151 17.9092 29.0151 17.9123C29.1197 18.0917 29.3043 18.2866 29.5505 18.4907C32.3593 18.6392 36.1558 18.5804 38.454 17.4916H38.4509L38.4478 17.4947Z" fill="white"/>
</g>
<mask id="mask21_40000242_1428" style="mask-type:luminance" maskUnits="userSpaceOnUse" x="0" y="0" width="75" height="47">
<path d="M74.9786 0.0309448H0.027832V46.9845H74.9786V0.0309448Z" fill="white"/>
</mask>
<g mask="url(#mask21_40000242_1428)">
<path d="M31.3871 6.42134C31.3656 6.48011 31.344 6.53579 31.3225 6.59456C31.0241 7.41733 29.4273 9.31341 28.249 10.2444C28.3505 10.4888 28.4428 10.727 28.5044 10.9249C29.7873 10.13 30.8456 9.19588 31.584 8.20608C32.2916 7.25649 32.9961 5.54908 33.15 4.65826C33.2853 3.88189 33.2884 2.4838 33.1653 1.07333C32.8823 1.16922 32.6423 1.26511 32.467 1.35171C32.3162 1.42904 32.0732 1.56823 31.7747 1.75691C31.9532 4.91499 31.6517 5.71302 31.384 6.42444L31.3871 6.42134Z" fill="white"/>
</g>
<mask id="mask22_40000242_1428" style="mask-type:luminance" maskUnits="userSpaceOnUse" x="0" y="0" width="75" height="47">
<path d="M74.9786 0.0309448H0.027832V46.9845H74.9786V0.0309448Z" fill="white"/>
</mask>
<g mask="url(#mask22_40000242_1428)">
<path d="M28.5072 6.97499C28.7041 6.66259 29.2086 5.36966 29.2794 4.86858C29.3225 4.56854 29.3686 4.12004 29.3471 3.44574C28.498 4.11385 27.7627 4.80053 27.5565 5.29233C27.252 6.01922 27.3319 7.55341 27.4889 8.29885C27.8796 7.85344 28.3441 7.23482 28.5103 6.9719L28.5072 6.97499Z" fill="white"/>
</g>
<mask id="mask23_40000242_1428" style="mask-type:luminance" maskUnits="userSpaceOnUse" x="0" y="0" width="75" height="47">
<path d="M74.9786 0.0309448H0.027832V46.9845H74.9786V0.0309448Z" fill="white"/>
</mask>
<g mask="url(#mask23_40000242_1428)">
<path d="M37.7401 4.9954C37.4725 6.26667 37.0879 7.72972 36.2326 8.97315C35.7742 9.63508 34.4021 11.1074 33.7775 11.6363C32.6731 12.5828 30.6764 13.6933 28.5566 14.5408C28.5566 14.7264 28.5566 14.912 28.5566 15.0975C30.2949 14.6831 32.3069 13.8758 33.5622 13.0654C35.5281 11.7972 37.5432 9.82686 37.8878 9.24226C39.706 6.15841 39.6045 3.48905 39.2138 0.0463996C38.98 0.0371202 38.7769 0.0340271 38.6077 0.0340271C38.3616 0.0340271 38.0386 0.0587721 37.6694 0.102076C37.9401 2.39099 37.8816 4.29635 37.7371 4.99849L37.7401 4.9954Z" fill="white"/>
</g>
</g>
</g>
</g>
<defs>
<clipPath id="clip0_40000242_1428">
<rect width="75" height="47" fill="white"/>
</clipPath>
</defs>
</svg>
