<svg xmlns="http://www.w3.org/2000/svg" width="2638" height="1472" viewBox="0 0 2638 1472" fill="none">
<path data-title="E1.10" d="M1837.61 450.162L1787.758 483.392Q1784.43 485.611 1782.211 482.283L1772.249 467.337Q1770.03 464.009 1773.439 461.917L1822.571 431.761Q1825.98 429.669 1827.954 433.148L1837.61 450.162Q1837.61 450.162 1837.61 450.162L1837.61 450.162Q1837.61 450.162 1837.61 450.162Z" fill="#1F4F4B" fill-opacity="0.8" />
<path data-title="E2.16" d="M1726.83 419.145L1705.346 418.211Q1701.35 418.037 1701.291 422.037L1700.299 488.811Q1700.24 492.811 1704.24 492.811L1723.94 492.811Q1727.94 492.811 1727.88 488.811L1726.83 419.145Q1726.83 419.145 1726.83 419.145L1726.83 419.145Q1726.83 419.145 1726.83 419.145Z" fill="#1F4F4B" fill-opacity="0.8" />
<path data-title="F2.3" d="M1457.09 395.328L1433.95 395.328Q1429.95 395.328 1429.95 391.328L1429.95 326.216Q1429.95 322.216 1433.95 322.216L1453.09 322.216Q1457.09 322.216 1457.09 326.216L1457.09 395.328Q1457.09 395.328 1457.09 395.328L1457.09 395.328Q1457.09 395.328 1457.09 395.328Z" fill="#938370" fill-opacity="0.8" />
<path data-title="F1.8" d="M1067.71 396.436L1043.46 396.436Q1039.46 396.436 1039.46 392.436L1039.46 326.77Q1039.46 322.77 1043.46 322.77L1063.71 322.77Q1067.71 322.77 1067.71 326.77L1067.71 396.436Q1067.71 396.436 1067.71 396.436L1067.71 396.436Q1067.71 396.436 1067.71 396.436Z" fill="#938370" fill-opacity="0.8" />
<path data-title="F1.6" d="M1036.69 395.328L1013 395.328Q1009 395.328 1009 391.328L1009 325.108Q1009 321.108 1013 321.108L1032.69 321.108Q1036.69 321.108 1036.69 325.108L1036.69 395.328Q1036.69 395.328 1036.69 395.328L1036.69 395.328Q1036.69 395.328 1036.69 395.328Z" fill="#938370" fill-opacity="0.8" />
<path data-title="F1.5" d="M1006.23 394.774L981.428 394.774Q977.428 394.774 977.487 390.774L978.477 324Q978.536 320 982.536 320L1000.57 320Q1004.57 320 1004.659 323.999L1006.23 394.774Q1006.23 394.774 1006.23 394.774L1006.23 394.774Q1006.23 394.774 1006.23 394.774Z" fill="#938370" fill-opacity="0.8" />
<path data-title="A1.25" d="M1169.63 806.863L1162.595 845.024Q1161.87 848.958 1165.827 849.54L1176.743 851.145Q1180.7 851.727 1181.324 847.776L1186.726 813.583Q1187.35 809.632 1183.398 809.014L1169.63 806.863Q1169.63 806.863 1169.63 806.863L1169.63 806.863Q1169.63 806.863 1169.63 806.863Z" fill="#C79A65" fill-opacity="0.8" />
<path data-title="A1.28" d="M1130.3 809.632L1122.785 846.7Q1121.99 850.62 1125.926 851.335L1136.334 853.228Q1140.27 853.943 1141.004 850.011L1147.286 816.334Q1148.02 812.402 1144.068 811.784L1130.3 809.632Q1130.3 809.632 1130.3 809.632L1130.3 809.632Q1130.3 809.632 1130.3 809.632Z" fill="#C79A65" fill-opacity="0.8" />
<path data-title="A1.55" d="M857.235 814.063L844.541 811.524Q840.619 810.74 839.784 814.652L832.592 848.369Q831.757 852.281 835.659 853.162L845.025 855.277Q848.927 856.158 849.702 852.234L857.235 814.063Q857.235 814.063 857.235 814.063L857.235 814.063Q857.235 814.063 857.235 814.063Z" fill="#C79A65" fill-opacity="0.8" />
<path data-title="D3.2" d="M1353.51 970.812L1363.808 989.997Q1365.7 993.521 1369.303 991.783L1409.177 972.55Q1412.78 970.812 1411.093 967.185L1403.387 950.622Q1401.7 946.995 1398.114 948.767L1353.51 970.812Q1353.51 970.812 1353.51 970.812L1353.51 970.812Q1353.51 970.812 1353.51 970.812Z" fill="#D8FFFF" fill-opacity="0.8" />
<path data-title="D3.1" d="M1360.71 998.506L1368.967 1015.935Q1370.68 1019.55 1374.306 1017.861L1415.804 998.534Q1419.43 996.845 1417.677 993.249L1410.653 978.839Q1408.9 975.243 1405.298 976.982L1360.71 998.506Q1360.71 998.506 1360.71 998.506L1360.71 998.506Q1360.71 998.506 1360.71 998.506Z" fill="#D8FFFF" fill-opacity="0.8" />
<path data-title="D2.1" d="M1159.1 569.247L1153.98 589.737Q1153.01 593.618 1149.174 592.483L1087.606 574.259Q1083.77 573.124 1085.411 569.476L1092.099 554.617Q1093.74 550.969 1097.592 552.046L1159.1 569.247Q1159.1 569.247 1159.1 569.247L1159.1 569.247Q1159.1 569.247 1159.1 569.247Z" fill="#D8FFFF" fill-opacity="0.8" />
<path data-title="D2.10" d="M991.829 527.706L993.213 547.533Q993.491 551.523 997.48 551.225L1063.721 546.282Q1067.71 545.984 1067.226 542.013L1065.424 527.246Q1064.94 523.275 1060.947 523.517L991.829 527.706Q991.829 527.706 991.829 527.706L991.829 527.706Q991.829 527.706 991.829 527.706Z" fill="#D8FFFF" fill-opacity="0.8" />
<path data-title="D1.3" d="M968.012 534.906L967.094 554.174Q966.904 558.169 962.953 557.547L900.512 547.714Q896.561 547.092 897.345 543.17L900.208 528.859Q900.992 524.937 904.948 525.526L968.012 534.906Q968.012 534.906 968.012 534.906L968.012 534.906Q968.012 534.906 968.012 534.906Z" fill="#D8FFFF" fill-opacity="0.8" />
<path data-title="D1.5" d="M872.19 523.829L802.828 549.577Q799.078 550.969 797.76 547.192L792.087 530.929Q790.769 527.152 794.53 525.79L857.352 503.036Q861.113 501.674 862.902 505.252L872.19 523.829Q872.19 523.829 872.19 523.829L872.19 523.829Q872.19 523.829 872.19 523.829Z" fill="#D8FFFF" fill-opacity="0.8" />
<path data-title="C1.6" d="M1058.85 781.384L1041.585 787.29Q1037.8 788.585 1036.644 784.756L1021.236 733.702Q1020.08 729.873 1023.893 728.664L1038.977 723.882Q1042.79 722.673 1043.845 726.531L1058.85 781.384Q1058.85 781.384 1058.85 781.384L1058.85 781.384Q1058.85 781.384 1058.85 781.384Z" fill="#F4C671" fill-opacity="0.8" />
<path data-title="C1.10" d="M979.089 780.83L961.311 786.301Q957.488 787.477 956.291 783.66L940.961 734.798Q939.764 730.981 943.49 729.527L958.747 723.573Q962.473 722.119 963.562 725.968L979.089 780.83Q979.089 780.83 979.089 780.83L979.089 780.83Q979.089 780.83 979.089 780.83Z" fill="#F4C671" fill-opacity="0.8" />
<path data-title="C1.15" d="M899.33 785.261L880.46 790.784Q876.621 791.908 875.575 788.047L861.605 736.504Q860.559 732.643 864.401 731.531L877.764 727.662Q881.606 726.55 882.762 730.379L899.33 785.261Q899.33 785.261 899.33 785.261L899.33 785.261Q899.33 785.261 899.33 785.261Z" fill="#F4C671" fill-opacity="0.8" />
<path data-title="C6.11" d="M1685.29 729.319L1652.059 679.474Q1649.84 676.146 1653.243 674.044L1665.267 666.617Q1668.67 664.515 1670.964 667.792L1701.276 711.087Q1703.57 714.364 1700.474 716.897L1685.29 729.319Q1685.29 729.319 1685.29 729.319L1685.29 729.319Q1685.29 729.319 1685.29 729.319Z" fill="#F4C671" fill-opacity="0.8" />
<path data-title="C6.3" d="M1629.35 675.039L1570.626 690.629Q1566.76 691.655 1565.766 687.78L1562.214 673.929Q1561.22 670.054 1565.101 669.084L1617.159 656.069Q1621.04 655.099 1622.579 658.791L1629.35 675.039Q1629.35 675.039 1629.35 675.039L1629.35 675.039Q1629.35 675.039 1629.35 675.039Z" fill="#F4C671" fill-opacity="0.8" />
<path data-title="C6.1" d="M1622.7 730.981L1560.113 747.15Q1556.24 748.151 1555.42 744.236L1552.07 728.249Q1551.25 724.334 1555.135 723.38L1610.505 709.78Q1614.39 708.826 1615.795 712.571L1622.7 730.981Q1622.7 730.981 1622.7 730.981L1622.7 730.981Q1622.7 730.981 1622.7 730.981Z" fill="#F4C671" fill-opacity="0.8" />
<path data-title="C5.3" d="M1536.3 684.455L1483.048 666.877Q1479.25 665.623 1480.074 661.709L1482.856 648.489Q1483.68 644.575 1487.509 645.731L1538.561 661.143Q1542.39 662.299 1541.33 666.156L1536.3 684.455Q1536.3 684.455 1536.3 684.455L1536.3 684.455Q1536.3 684.455 1536.3 684.455Z" fill="#F4C671" fill-opacity="0.8" />
<path data-title="C5.12" d="M1443.8 691.101L1390.321 718.1Q1386.75 719.903 1384.887 716.364L1377.533 702.395Q1375.67 698.856 1379.289 697.153L1428.551 673.972Q1432.17 672.269 1434.272 675.672L1443.8 691.101Q1443.8 691.101 1443.8 691.101L1443.8 691.101Q1443.8 691.101 1443.8 691.101Z" fill="#F4C671" fill-opacity="0.8" />
<path data-title="C5.18" d="M1431.61 615.219L1372.985 623.002Q1369.02 623.528 1368.642 619.546L1367.188 604.246Q1366.81 600.264 1370.766 599.672L1422.114 591.994Q1426.07 591.402 1426.976 595.298L1431.61 615.219Q1431.61 615.219 1431.61 615.219L1431.61 615.219Q1431.61 615.219 1431.61 615.219Z" fill="#F4C671" fill-opacity="0.8" />
<path data-title="C5.22" d="M1438.26 535.46L1380.744 543.233Q1376.78 543.769 1376.78 539.769L1376.78 522.844Q1376.78 518.844 1380.754 518.39L1430.956 512.651Q1434.93 512.197 1435.497 516.157L1438.26 535.46Q1438.26 535.46 1438.26 535.46L1438.26 535.46Q1438.26 535.46 1438.26 535.46Z" fill="#F4C671" fill-opacity="0.8" />
<path data-title="C2.6" d="M1257.14 541.553L1199.59 552.441Q1195.66 553.185 1195.106 549.224L1192.884 533.329Q1192.33 529.368 1196.294 528.832L1249.856 521.595Q1253.82 521.059 1254.46 525.008L1257.14 541.553Q1257.14 541.553 1257.14 541.553L1257.14 541.553Q1257.14 541.553 1257.14 541.553Z" fill="#F4C671" fill-opacity="0.8" />
<path data-title="C2.5" d="M1260.46 568.139L1200.134 580.101Q1196.21 580.879 1195.658 576.917L1193.442 561.024Q1192.89 557.062 1196.824 556.337L1252.096 546.155Q1256.03 545.43 1256.796 549.356L1260.46 568.139Q1260.46 568.139 1260.46 568.139L1260.46 568.139Q1260.46 568.139 1260.46 568.139Z" fill="#F4C671" fill-opacity="0.8" />
<path data-title="C2.3" d="M1230.55 644.021L1188.501 601.449Q1185.69 598.603 1188.663 595.927L1199.327 586.324Q1202.3 583.648 1205.25 586.349L1245.33 623.042Q1248.28 625.743 1245.495 628.614L1230.55 644.021Q1230.55 644.021 1230.55 644.021L1230.55 644.021Q1230.55 644.021 1230.55 644.021Z" fill="#F4C671" fill-opacity="0.8" />
<path data-title="C2.2" d="M1213.94 664.515L1168.578 619.155Q1165.75 616.327 1168.431 613.359L1178.579 602.125Q1181.26 599.157 1183.99 602.08L1217.85 638.329Q1220.58 641.252 1219.482 645.098L1213.94 664.515Q1213.94 664.515 1213.94 664.515L1213.94 664.515Q1213.94 664.515 1213.94 664.515Z" fill="#F4C671" fill-opacity="0.8" />
<path data-title="C1.20" d="M1069.93 694.979L1083.386 639.6Q1084.33 635.713 1088.232 636.591L1102.578 639.82Q1106.48 640.698 1105.449 644.563L1092.001 694.991Q1090.97 698.856 1087.036 698.131L1069.93 694.979Q1069.93 694.979 1069.93 694.979L1069.93 694.979Q1069.93 694.979 1069.93 694.979Z" fill="#F4C671" fill-opacity="0.8" />
<path data-title="C1.22" d="M1017.31 688.886L1029.74 632.419Q1030.6 628.513 1034.463 629.549L1049.447 633.569Q1053.31 634.605 1052.477 638.517L1041.403 690.513Q1040.57 694.425 1036.679 693.498L1017.31 688.886Q1017.31 688.886 1017.31 688.886L1017.31 688.886Q1017.31 688.886 1017.31 688.886Z" fill="#F4C671" fill-opacity="0.8" />
<path data-title="C1.31" d="M842.834 635.713L829.338 693.852Q828.433 697.748 832.411 698.167L845.503 699.545Q849.481 699.964 850.485 696.092L863.986 644.016Q864.99 640.144 861.068 639.36L842.834 635.713Q842.834 635.713 842.834 635.713L842.834 635.713Q842.834 635.713 842.834 635.713Z" fill="#F4C671" fill-opacity="0.8" />
<path data-title="C1.32" d="M815.694 631.836L802.697 691.623Q801.847 695.532 805.826 695.94L819.469 697.34Q823.448 697.748 824.435 693.872L837.97 640.697Q838.957 636.821 835.046 635.983L815.694 631.836Q815.694 631.836 815.694 631.836L815.694 631.836Q815.694 631.836 815.694 631.836Z" fill="#F4C671" fill-opacity="0.8" />
<path data-title="C1.30" d="M855.02 698.856L869.013 642.365Q869.975 638.482 873.882 639.34L888.777 642.609Q892.684 643.467 891.61 647.32L877.695 697.218Q876.621 701.071 872.642 700.663L855.02 698.856Q855.02 698.856 855.02 698.856L855.02 698.856Q855.02 698.856 855.02 698.856Z" fill="#F4C671" fill-opacity="0.8" />
<path data-title="C1.29" d="M880.498 699.963L895.02 642.912Q896.007 639.036 899.882 640.03L913.734 643.581Q917.609 644.575 916.682 648.466L904.688 698.842Q903.761 702.733 899.789 702.26L880.498 699.963Q880.498 699.963 880.498 699.963L880.498 699.963Q880.498 699.963 880.498 699.963Z" fill="#F4C671" fill-opacity="0.8" />
<path data-title="C1.28" d="M907.639 699.41L921.112 642.927Q922.04 639.036 925.942 639.914L940.293 643.143Q944.195 644.021 943.216 647.899L930.219 699.409Q929.24 703.287 925.303 702.58L907.639 699.41Q907.639 699.41 907.639 699.41L907.639 699.41Q907.639 699.41 907.639 699.41Z" fill="#F4C671" fill-opacity="0.8" />
<path data-title="C1.26" d="M933.671 699.964L948.756 640.146Q949.734 636.267 953.632 637.166L967.437 640.353Q971.335 641.252 970.464 645.156L958.359 699.383Q957.488 703.287 953.526 702.734L933.671 699.964Q933.671 699.964 933.671 699.964L933.671 699.964Q933.671 699.964 933.671 699.964Z" fill="#F4C671" fill-opacity="0.8" />
<path data-title="C1.25" d="M961.919 693.871L976.466 635.165Q977.428 631.282 981.33 632.16L995.681 635.389Q999.583 636.267 998.676 640.163L985.535 696.621Q984.628 700.517 980.789 699.393L961.919 693.871Q961.919 693.871 961.919 693.871L961.919 693.871Q961.919 693.871 961.919 693.871Z" fill="#F4C671" fill-opacity="0.8" />
<path data-title="C1.23" d="M991.275 688.332L1003.17 632.977Q1004.01 629.066 1007.849 630.19L1022.881 634.589Q1026.72 635.713 1025.724 639.587L1012.766 689.997Q1011.77 693.871 1007.909 692.827L991.275 688.332Q991.275 688.332 991.275 688.332L991.275 688.332Q991.275 688.332 991.275 688.332Z" fill="#F4C671" fill-opacity="0.8" />
<path data-title="C1.21" d="M1042.79 692.763L1056.27 635.729Q1057.19 631.836 1061.092 632.714L1075.438 635.943Q1079.34 636.821 1078.469 640.725L1066.371 694.952Q1065.5 698.856 1061.637 697.819L1042.79 692.763Q1042.79 692.763 1042.79 692.763L1042.79 692.763Q1042.79 692.763 1042.79 692.763Z" fill="#F4C671" fill-opacity="0.8" />
<path data-title="C1.19" d="M1095.4 697.748L1108.356 641.274Q1109.25 637.375 1113.073 638.551L1127.027 642.845Q1130.85 644.021 1129.959 647.92L1118.451 698.28Q1117.56 702.179 1113.638 701.395L1095.4 697.748Q1095.4 697.748 1095.4 697.748L1095.4 697.748Q1095.4 697.748 1095.4 697.748Z" fill="#F4C671" fill-opacity="0.8" />
<path data-title="C2.1" d="M1189.56 678.916L1151.408 640.757Q1148.58 637.928 1151.54 635.238L1163.9 624.002Q1166.86 621.312 1169.671 624.158L1208.909 663.884Q1211.72 666.73 1208.215 668.657L1189.56 678.916Q1189.56 678.916 1189.56 678.916L1189.56 678.916Q1189.56 678.916 1189.56 678.916Z" fill="#F4C671" fill-opacity="0.8" />
<path data-title="C2.8" d="M1192.33 527.152L1189.575 507.849Q1189.01 503.889 1192.953 503.214L1246.547 494.04Q1250.49 493.365 1251.205 497.301L1254.205 513.8Q1254.92 517.736 1250.965 518.331L1192.33 527.152Q1192.33 527.152 1192.33 527.152L1192.33 527.152Q1192.33 527.152 1192.33 527.152Z" fill="#F4C671" fill-opacity="0.8" />
<path data-title="C3.1" d="M1359.05 756.46L1306.233 733.674Q1302.56 732.089 1304.099 728.397L1309.331 715.841Q1310.87 712.149 1314.679 713.369L1364.111 729.207Q1367.92 730.427 1366.63 734.213L1359.05 756.46Q1359.05 756.46 1359.05 756.46L1359.05 756.46Q1359.05 756.46 1359.05 756.46Z" fill="#F4C671" fill-opacity="0.8" />
<path data-title="C3.2" d="M1352.41 723.78L1296.318 701.967Q1292.59 700.517 1294.253 696.879L1299.787 684.769Q1301.45 681.131 1305.245 682.396L1355.815 699.252Q1359.61 700.517 1358.427 704.338L1352.41 723.78Q1352.41 723.78 1352.41 723.78L1352.41 723.78Q1352.41 723.78 1352.41 723.78Z" fill="#F4C671" fill-opacity="0.8" />
<path data-title="C3.3" d="M1346.87 693.871L1292.981 672.628Q1289.26 671.161 1290.628 667.402L1294.542 656.642Q1295.91 652.883 1299.712 654.126L1351.378 671.026Q1355.18 672.269 1353.744 676.002L1346.87 693.871Q1346.87 693.871 1346.87 693.871L1346.87 693.871Q1346.87 693.871 1346.87 693.871Z" fill="#F4C671" fill-opacity="0.8" />
<path data-title="C3.5" d="M1340.77 665.623L1286.866 643.334Q1283.17 641.806 1284.794 638.151L1290.406 625.521Q1292.03 621.866 1295.787 623.239L1345.883 641.541Q1349.64 642.914 1348.185 646.64L1340.77 665.623Q1340.77 665.623 1340.77 665.623L1340.77 665.623Q1340.77 665.623 1340.77 665.623Z" fill="#F4C671" fill-opacity="0.8" />
<path data-title="C3.6" d="M1338.56 636.267L1285.733 613.48Q1282.06 611.896 1283.716 608.255L1288.714 597.259Q1290.37 593.618 1294.138 594.961L1342.542 612.215Q1346.31 613.558 1345.018 617.344L1338.56 636.267Q1338.56 636.267 1338.56 636.267L1338.56 636.267Q1338.56 636.267 1338.56 636.267Z" fill="#F4C671" fill-opacity="0.8" />
<path data-title="C3.8" d="M1339.11 608.573L1285.764 586.82Q1282.06 585.31 1283.526 581.588L1287.794 570.754Q1289.26 567.032 1293.062 568.274L1341.408 584.068Q1345.21 585.31 1344.195 589.179L1339.11 608.573Q1339.11 608.573 1339.11 608.573L1339.11 608.573Q1339.11 608.573 1339.11 608.573Z" fill="#F4C671" fill-opacity="0.8" />
<path data-title="C3.9" d="M1341.33 581.986L1289.096 560.782Q1285.39 559.277 1287.044 555.635L1292.036 544.641Q1293.69 540.999 1297.465 542.32L1345.305 559.064Q1349.08 560.385 1347.729 564.15L1341.33 581.986Q1341.33 581.986 1341.33 581.986L1341.33 581.986Q1341.33 581.986 1341.33 581.986Z" fill="#F4C671" fill-opacity="0.8" />
<path data-title="C3.10" d="M1345.76 556.508L1292.463 536.845Q1288.71 535.46 1290.645 531.959L1298.405 517.914Q1300.34 514.413 1304.054 515.899L1349.246 533.974Q1352.96 535.46 1351.665 539.245L1345.76 556.508Q1345.76 556.508 1345.76 556.508L1345.76 556.508Q1345.76 556.508 1345.76 556.508Z" fill="#F4C671" fill-opacity="0.8" />
<path data-title="C5.21" d="M1434.93 561.493L1375.746 570.319Q1371.79 570.909 1371.505 566.919L1370.415 551.636Q1370.13 547.646 1374.087 547.06L1425.993 539.37Q1429.95 538.784 1430.807 542.691L1434.93 561.493Q1434.93 561.493 1434.93 561.493L1434.93 561.493Q1434.93 561.493 1434.93 561.493Z" fill="#F4C671" fill-opacity="0.8" />
<path data-title="C5.19" d="M1429.95 588.633L1372.429 596.924Q1368.47 597.495 1368.09 593.513L1366.63 578.214Q1366.25 574.232 1370.213 573.692L1423.217 566.464Q1427.18 565.924 1427.664 569.895L1429.95 588.633Q1429.95 588.633 1429.95 588.633L1429.95 588.633Q1429.95 588.633 1429.95 588.633Z" fill="#F4C671" fill-opacity="0.8" />
<path data-title="C5.16" d="M1434.38 642.914L1380.451 666.25Q1376.78 667.838 1375.097 664.209L1367.933 648.758Q1366.25 645.129 1369.898 643.488L1417.992 621.845Q1421.64 620.204 1423.597 623.693L1434.38 642.914Q1434.38 642.914 1434.38 642.914L1434.38 642.914Q1434.38 642.914 1434.38 642.914Z" fill="#F4C671" fill-opacity="0.8" />
<path data-title="C5.15" d="M1438.26 666.177L1384.808 692.124Q1381.21 693.871 1379.692 690.17L1373.868 675.97Q1372.35 672.269 1376.017 670.671L1424.623 649.496Q1428.29 647.898 1430.205 651.41L1438.26 666.177Q1438.26 666.177 1438.26 666.177L1438.26 666.177Q1438.26 666.177 1438.26 666.177Z" fill="#F4C671" fill-opacity="0.8" />
<path data-title="C5.11" d="M1452.66 715.472L1398.582 744.593Q1395.06 746.49 1393.452 742.827L1386.698 727.443Q1385.09 723.78 1388.682 722.02L1436.878 698.4Q1440.47 696.64 1442.644 699.998L1452.66 715.472Q1452.66 715.472 1452.66 715.472L1452.66 715.472Q1452.66 715.472 1452.66 715.472Z" fill="#F4C671" fill-opacity="0.8" />
<path data-title="C5.10" d="M1539.62 549.861L1483.097 533.785Q1479.25 532.691 1480.665 528.95L1485.585 515.938Q1487 512.197 1490.867 513.219L1541.843 526.684Q1545.71 527.706 1544.65 531.563L1539.62 549.861Q1539.62 549.861 1539.62 549.861L1539.62 549.861Q1539.62 549.861 1539.62 549.861Z" fill="#F4C671" fill-opacity="0.8" />
<path data-title="C5.9" d="M1535.74 576.448L1481.416 560.41Q1477.58 559.277 1478.845 555.482L1483.515 541.471Q1484.78 537.676 1488.63 538.76L1537.98 552.654Q1541.83 553.738 1540.794 557.601L1535.74 576.448Q1535.74 576.448 1535.74 576.448L1535.74 576.448Q1535.74 576.448 1535.74 576.448Z" fill="#F4C671" fill-opacity="0.8" />
<path data-title="C5.8" d="M1535.19 603.034L1480.289 585.424Q1476.48 584.202 1478.104 580.547L1483.716 567.917Q1485.34 564.262 1489.157 565.459L1538.013 580.789Q1541.83 581.986 1540.627 585.801L1535.19 603.034Q1535.19 603.034 1535.19 603.034L1535.19 603.034Q1535.19 603.034 1535.19 603.034Z" fill="#F4C671" fill-opacity="0.8" />
<path data-title="C5.6" d="M1535.19 630.174L1479.722 612.031Q1475.92 610.788 1477.304 607.035L1482.296 593.494Q1483.68 589.741 1487.496 590.94L1538.014 606.82Q1541.83 608.019 1540.682 611.851L1535.19 630.174Q1535.19 630.174 1535.19 630.174L1535.19 630.174Q1535.19 630.174 1535.19 630.174Z" fill="#F4C671" fill-opacity="0.8" />
<path data-title="C5.5" d="M1535.19 657.315L1481.371 639.205Q1477.58 637.929 1478.973 634.179L1483.387 622.293Q1484.78 618.543 1488.617 619.672L1537.443 634.03Q1541.28 635.159 1540.22 639.016L1535.19 657.315Q1535.19 657.315 1535.19 657.315L1535.19 657.315Q1535.19 657.315 1535.19 657.315Z" fill="#F4C671" fill-opacity="0.8" />
<path data-title="C5.2" d="M1533.53 711.595L1476.422 693.944Q1472.6 692.763 1473.865 688.968L1478.535 674.957Q1479.8 671.162 1483.645 672.266L1535.775 687.228Q1539.62 688.332 1538.607 692.202L1533.53 711.595Q1533.53 711.595 1533.53 711.595L1533.53 711.595Q1533.53 711.595 1533.53 711.595Z" fill="#F4C671" fill-opacity="0.8" />
<path data-title="C5.1" d="M1521.89 735.412L1466.41 716.225Q1462.63 714.918 1464.169 711.226L1469.401 698.671Q1470.94 694.979 1474.76 696.166L1524.17 711.516Q1527.99 712.703 1526.952 716.566L1521.89 735.412Q1521.89 735.412 1521.89 735.412L1521.89 735.412Q1521.89 735.412 1521.89 735.412Z" fill="#F4C671" fill-opacity="0.8" />
<path data-title="C6.5" d="M1627.69 649.006L1572.271 664.543Q1568.42 665.623 1567.384 661.76L1563.366 646.777Q1562.33 642.914 1566.188 641.858L1617.182 627.907Q1621.04 626.851 1622.19 630.682L1627.69 649.006Q1627.69 649.006 1627.69 649.006L1627.69 649.006Q1627.69 649.006 1627.69 649.006Z" fill="#F4C671" fill-opacity="0.8" />
<path data-title="C6.6" d="M1624.36 622.974L1568.412 637.479Q1564.54 638.483 1563.455 634.633L1559.535 620.731Q1558.45 616.881 1562.337 615.937L1613.833 603.424Q1617.72 602.48 1618.953 606.285L1624.36 622.974Q1624.36 622.974 1624.36 622.974L1624.36 622.974Q1624.36 622.974 1624.36 622.974Z" fill="#F4C671" fill-opacity="0.8" />
<path data-title="C6.8" d="M1625.47 596.387L1567.86 611.439Q1563.99 612.45 1562.905 608.6L1558.985 594.699Q1557.9 590.849 1561.785 589.895L1614.935 576.848Q1618.82 575.894 1620.055 579.699L1625.47 596.387Q1625.47 596.387 1625.47 596.387L1625.47 596.387Q1625.47 596.387 1625.47 596.387Z" fill="#F4C671" fill-opacity="0.8" />
<path data-title="C6.9" d="M1626.02 570.355L1570.081 584.34Q1566.2 585.31 1565.396 581.392L1562.574 567.626Q1561.77 563.708 1565.653 562.747L1616.047 550.268Q1619.93 549.307 1621.042 553.149L1626.02 570.355Q1626.02 570.355 1626.02 570.355L1626.02 570.355Q1626.02 570.355 1626.02 570.355Z" fill="#F4C671" fill-opacity="0.8" />
<path data-title="C6.10" d="M1631.56 542.107L1574.508 557.149Q1570.64 558.169 1569.909 554.236L1566.941 538.286Q1566.21 534.353 1570.106 533.445L1619.354 521.967Q1623.25 521.059 1624.719 524.78L1631.56 542.107Q1631.56 542.107 1631.56 542.107L1631.56 542.107Q1631.56 542.107 1631.56 542.107Z" fill="#F4C671" fill-opacity="0.8" />
<path data-title="C6.2" d="M1622.7 702.733L1567.848 717.739Q1563.99 718.795 1563.02 714.914L1559.42 700.521Q1558.45 696.64 1562.317 695.618L1613.293 682.153Q1617.16 681.131 1618.154 685.006L1622.7 702.733Q1622.7 702.733 1622.7 702.733L1622.7 702.733Q1622.7 702.733 1622.7 702.733Z" fill="#F4C671" fill-opacity="0.8" />
<path data-title="C6.12" d="M1705.23 711.595L1674.693 663.462Q1672.55 660.084 1675.862 657.841L1686.408 650.695Q1689.72 648.452 1691.999 651.739L1721.231 693.907Q1723.51 697.194 1720.368 699.669L1705.23 711.595Q1705.23 711.595 1705.23 711.595L1705.23 711.595Q1705.23 711.595 1705.23 711.595Z" fill="#F4C671" fill-opacity="0.8" />
<path data-title="C6.15" d="M1748.43 663.407L1695.777 647.92Q1691.94 646.791 1692.612 642.848L1695.138 628.025Q1695.81 624.082 1699.653 625.191L1749.577 639.589Q1753.42 640.698 1752.562 644.605L1748.43 663.407Q1748.43 663.407 1748.43 663.407L1748.43 663.407Q1748.43 663.407 1748.43 663.407Z" fill="#F4C671" fill-opacity="0.8" />
<path data-title="C6.16" d="M1741.79 634.051L1686.899 617.483Q1683.07 616.327 1683.993 612.435L1687.137 599.172Q1688.06 595.28 1691.923 596.317L1744.017 610.305Q1747.88 611.342 1746.844 615.205L1741.79 634.051Q1741.79 634.051 1741.79 634.051L1741.79 634.051Q1741.79 634.051 1741.79 634.051Z" fill="#F4C671" fill-opacity="0.8" />
<path data-title="C6.18" d="M1734.59 605.25L1678.029 587.609Q1674.21 586.418 1675.078 582.513L1677.772 570.383Q1678.64 566.478 1682.525 567.432L1737.905 581.032Q1741.79 581.986 1740.607 585.807L1734.59 605.25Q1734.59 605.25 1734.59 605.25L1734.59 605.25Q1734.59 605.25 1734.59 605.25Z" fill="#F4C671" fill-opacity="0.8" />
<path data-title="C6.19" d="M1731.82 577.002L1676.939 560.954Q1673.1 559.831 1674.023 555.939L1677.167 542.676Q1678.09 538.784 1681.953 539.821L1734.047 553.809Q1737.91 554.846 1736.85 558.703L1731.82 577.002Q1731.82 577.002 1731.82 577.002L1731.82 577.002Q1731.82 577.002 1731.82 577.002Z" fill="#F4C671" fill-opacity="0.8" />
<path data-title="C6.2" d="M1732.37 550.415L1677.479 533.326Q1673.66 532.137 1675.042 528.383L1680.028 514.844Q1681.41 511.09 1685.236 512.256L1735.744 527.648Q1739.57 528.814 1738.305 532.609L1732.37 550.415Q1732.37 550.415 1732.37 550.415L1732.37 550.415Q1732.37 550.415 1732.37 550.415Z" fill="#F4C671" fill-opacity="0.8" />
<path data-title="C1.18" d="M804.063 722.119L818.549 776.963Q819.571 780.83 823.467 779.924L839.492 776.198Q843.388 775.292 842.209 771.47L826.289 719.848Q825.11 716.026 821.268 717.138L804.063 722.119Q804.063 722.119 804.063 722.119L804.063 722.119Q804.063 722.119 804.063 722.119Z" fill="#F4C671" fill-opacity="0.8" />
<path data-title="C1.16" d="M872.744 783.046L853.874 788.568Q850.035 789.692 848.895 785.858L832.897 732.045Q831.757 728.211 835.57 727.002L850.653 722.22Q854.466 721.011 855.597 724.848L872.744 783.046Q872.744 783.046 872.744 783.046L872.744 783.046Q872.744 783.046 872.744 783.046Z" fill="#F4C671" fill-opacity="0.8" />
<path data-title="C1.12" d="M927.025 785.815L908.7 791.313Q904.869 792.462 903.672 788.645L888.342 739.783Q887.145 735.966 890.859 734.48L905.586 728.59Q909.3 727.104 910.456 730.933L927.025 785.815Q927.025 785.815 927.025 785.815L927.025 785.815Q927.025 785.815 927.025 785.815Z" fill="#F4C671" fill-opacity="0.8" />
<path data-title="C1.11" d="M953.611 785.815L935.337 790.384Q931.456 791.354 930.367 787.505L915.928 736.492Q914.839 732.643 918.613 731.317L931.559 726.768Q935.333 725.442 936.492 729.27L953.611 785.815Q953.611 785.815 953.611 785.815L953.611 785.815Q953.611 785.815 953.611 785.815Z" fill="#F4C671" fill-opacity="0.8" />
<path data-title="C1.9" d="M1005.12 782.492L987.827 788.863Q984.074 790.246 983.022 786.387L968.51 733.178Q967.458 729.319 971.243 728.024L984.721 723.414Q988.506 722.119 989.567 725.976L1005.12 782.492Q1005.12 782.492 1005.12 782.492L1005.12 782.492Q1005.12 782.492 1005.12 782.492Z" fill="#F4C671" fill-opacity="0.8" />
<path data-title="C1.8" d="M1032.82 781.384L1013.895 787.846Q1010.11 789.138 1009.016 785.291L994.031 732.612Q992.937 728.765 996.768 727.616L1011.259 723.268Q1015.09 722.119 1016.236 725.951L1032.82 781.384Q1032.82 781.384 1032.82 781.384L1032.82 781.384Q1032.82 781.384 1032.82 781.384Z" fill="#F4C671" fill-opacity="0.8" />
<path data-title="C1.5" d="M1085.99 781.384L1067.634 787.349Q1063.83 788.585 1062.745 784.735L1047.745 731.507Q1046.66 727.657 1050.522 726.614L1063.298 723.162Q1067.16 722.119 1068.371 725.931L1085.99 781.384Q1085.99 781.384 1085.99 781.384L1085.99 781.384Q1085.99 781.384 1085.99 781.384Z" fill="#F4C671" fill-opacity="0.8" />
<path data-title="C1.3" d="M1112.58 780.83L1094.704 787.703Q1090.97 789.139 1089.789 785.317L1073.321 732.034Q1072.14 728.212 1075.873 726.776L1090.007 721.339Q1093.74 719.903 1094.922 723.724L1112.58 780.83Q1112.58 780.83 1112.58 780.83L1112.58 780.83Q1112.58 780.83 1112.58 780.83Z" fill="#F4C671" fill-opacity="0.8" />
<path data-title="C1.2" d="M1139.72 780.83L1120.873 785.886Q1117.01 786.923 1115.954 783.065L1101.996 732.069Q1100.94 728.211 1104.725 726.916L1118.205 722.306Q1121.99 721.011 1123.127 724.846L1139.72 780.83Q1139.72 780.83 1139.72 780.83L1139.72 780.83Q1139.72 780.83 1139.72 780.83Z" fill="#F4C671" fill-opacity="0.8" />
<path data-title="C1.1" d="M1167.96 780.276L1148.945 788.16Q1145.25 789.692 1144.151 785.846L1128.629 731.504Q1127.53 727.658 1131.344 726.454L1144.766 722.215Q1148.58 721.011 1149.823 724.813L1167.96 780.276Q1167.96 780.276 1167.96 780.276L1167.96 780.276Q1167.96 780.276 1167.96 780.276Z" fill="#F4C671" fill-opacity="0.8" />
<path data-title="D1.0" d="M879.391 582.54L811.175 605.629Q807.386 606.911 806.019 603.152L799.891 586.299Q798.524 582.54 802.292 581.197L866.207 558.405Q869.975 557.062 871.362 560.814L879.391 582.54Q879.391 582.54 879.391 582.54L879.391 582.54Q879.391 582.54 879.391 582.54Z" fill="#D8FFFF" fill-opacity="0.8" />
<path data-title="D1.1" d="M876.067 550.969L807.246 577.237Q803.509 578.663 802.191 574.886L796.518 558.623Q795.2 554.846 798.964 553.493L862.333 530.721Q866.097 529.368 867.773 533L876.067 550.969Q876.067 550.969 876.067 550.969L876.067 550.969Q876.067 550.969 876.067 550.969Z" fill="#D8FFFF" fill-opacity="0.8" />
<path data-title="D1.5" d="M869.421 496.135L800.618 521.345Q796.862 522.721 795.495 518.962L789.367 502.109Q788 498.35 791.792 497.076L856.767 475.253Q860.559 473.979 862.045 477.693L869.421 496.135Q869.421 496.135 869.421 496.135L869.421 496.135Q869.421 496.135 869.421 496.135Z" fill="#D8FFFF" fill-opacity="0.8" />
<path data-title="D1.6" d="M869.975 467.333L802.292 491.468Q798.524 492.811 797.1 489.073L791.086 473.286Q789.662 469.548 793.454 468.274L856.767 447.005Q860.559 445.731 862.157 449.398L869.975 467.333Q869.975 467.333 869.975 467.333L869.975 467.333Q869.975 467.333 869.975 467.333Z" fill="#D8FFFF" fill-opacity="0.8" />
<path data-title="D1.8" d="M875.513 435.208L806.701 460.947Q802.955 462.348 801.581 458.591L796.021 443.396Q794.647 439.639 798.439 438.365L863.413 416.542Q867.205 415.268 868.743 418.96L875.513 435.208Q875.513 435.208 875.513 435.208L875.513 435.208Q875.513 435.208 875.513 435.208Z" fill="#D8FFFF" fill-opacity="0.8" />
<path data-title="D1.1" d="M959.704 588.633L956.946 607.936Q956.38 611.896 952.428 611.278L889.435 601.436Q885.483 600.818 886.382 596.92L889.569 583.115Q890.468 579.217 894.432 579.756L959.704 588.633Q959.704 588.633 959.704 588.633L959.704 588.633Q959.704 588.633 959.704 588.633Z" fill="#D8FFFF" fill-opacity="0.8" />
<path data-title="D1.2" d="M968.012 562.601L965.715 581.892Q965.242 585.864 961.307 585.146L899.388 573.842Q895.453 573.124 896.539 569.274L900.46 555.373Q901.546 551.523 905.492 552.181L968.012 562.601Q968.012 562.601 968.012 562.601L968.012 562.601Q968.012 562.601 968.012 562.601Z" fill="#D8FFFF" fill-opacity="0.8" />
<path data-title="D1.5" d="M965.796 506.105L964.401 527.038Q964.135 531.029 960.2 530.311L898.28 519.008Q894.345 518.29 894.535 514.295L895.263 499.022Q895.453 495.027 899.404 495.649L965.796 506.105Q965.796 506.105 965.796 506.105L965.796 506.105Q965.796 506.105 965.796 506.105Z" fill="#D8FFFF" fill-opacity="0.8" />
<path data-title="D1.6" d="M963.581 478.41L962.197 498.237Q961.919 502.227 957.978 501.544L895.517 490.725Q891.576 490.042 892.546 486.161L896.145 471.768Q897.115 467.887 901.066 468.512L963.581 478.41Q963.581 478.41 963.581 478.41L963.581 478.41Q963.581 478.41 963.581 478.41Z" fill="#D8FFFF" fill-opacity="0.8" />
<path data-title="D1.8" d="M889.36 462.348L955.768 474.374Q959.704 475.087 959.976 471.096L961.093 454.707Q961.365 450.716 957.434 449.975L897.723 438.718Q893.792 437.977 893.076 441.912L889.36 462.348Q889.36 462.348 889.36 462.348L889.36 462.348Q889.36 462.348 889.36 462.348Z" fill="#D8FFFF" fill-opacity="0.8" />
<path data-title="D1.9" d="M887.145 433.546L955.211 445.588Q959.15 446.285 959.332 442.289L960.076 425.91Q960.258 421.914 956.3 421.339L899.411 413.073Q895.453 412.498 893.984 416.219L887.145 433.546Q887.145 433.546 887.145 433.546L887.145 433.546Q887.145 433.546 887.145 433.546Z" fill="#D8FFFF" fill-opacity="0.8" />
<path data-title="D2.8" d="M991.275 582.54L991.275 605.127Q991.275 609.127 995.262 608.804L1062.613 603.357Q1066.6 603.034 1066.262 599.048L1064.728 580.987Q1064.39 577.001 1060.401 577.303L991.275 582.54Q991.275 582.54 991.275 582.54L991.275 582.54Q991.275 582.54 991.275 582.54Z" fill="#D8FFFF" fill-opacity="0.8" />
<path data-title="D2.9" d="M1068.26 573.124L996.37 578.897Q992.383 579.217 992.105 575.227L990.999 559.39Q990.721 555.4 994.703 555.017L1061.518 548.583Q1065.5 548.2 1065.94 552.176L1068.26 573.124Q1068.26 573.124 1068.26 573.124L1068.26 573.124Q1068.26 573.124 1068.26 573.124Z" fill="#D8FFFF" fill-opacity="0.8" />
<path data-title="D2.11" d="M990.721 500.566L992.111 520.946Q992.383 524.937 996.372 524.644L1063.721 519.691Q1067.71 519.398 1067.34 515.415L1065.87 499.564Q1065.5 495.581 1061.509 495.847L990.721 500.566Q990.721 500.566 990.721 500.566L990.721 500.566Q990.721 500.566 990.721 500.566Z" fill="#D8FFFF" fill-opacity="0.8" />
<path data-title="D2.12" d="M988.505 472.872L988.505 492.689Q988.505 496.689 992.495 496.4L1060.95 491.439Q1064.94 491.15 1064.662 487.16L1063.558 471.323Q1063.28 467.333 1059.291 467.628L988.505 472.872Q988.505 472.872 988.505 472.872L988.505 472.872Q988.505 472.872 988.505 472.872Z" fill="#D8FFFF" fill-opacity="0.8" />
<path data-title="D2.15" d="M986.844 446.285L986.844 465.548Q986.844 469.548 990.835 469.286L1058.739 464.825Q1062.73 464.563 1062.539 460.568L1061.811 445.295Q1061.62 441.3 1057.629 441.566L986.844 446.285Q986.844 446.285 986.844 446.285L986.844 446.285Q986.844 446.285 986.844 446.285Z" fill="#D8FFFF" fill-opacity="0.8" />
<path data-title="D2.16" d="M986.29 418.037L986.29 438.408Q986.29 442.408 990.282 442.148L1058.738 437.683Q1062.73 437.423 1062.257 433.451L1060.433 418.132Q1059.96 414.16 1055.966 414.37L986.29 418.037Q986.29 418.037 986.29 418.037L986.29 418.037Q986.29 418.037 986.29 418.037Z" fill="#D8FFFF" fill-opacity="0.8" />
<path data-title="D2.2" d="M1170.73 544.322L1165.676 563.169Q1164.64 567.032 1160.793 565.937L1100.357 548.741Q1096.51 547.646 1098.26 544.049L1104.73 530.749Q1106.48 527.152 1110.344 528.185L1170.73 544.322Q1170.73 544.322 1170.73 544.322L1170.73 544.322Q1170.73 544.322 1170.73 544.322Z" fill="#D8FFFF" fill-opacity="0.8" />
<path data-title="D2.3" d="M1165.75 515.521L1160.25 533.845Q1159.1 537.676 1155.273 536.512L1093.697 517.792Q1089.87 516.628 1091.285 512.887L1096.205 499.876Q1097.62 496.135 1101.467 497.23L1165.75 515.521Q1165.75 515.521 1165.75 515.521L1165.75 515.521Q1165.75 515.521 1165.75 515.521Z" fill="#D8FFFF" fill-opacity="0.8" />
<path data-title="D2.5" d="M1160.21 459.578L1154.636 479.542Q1153.56 483.395 1149.715 482.292L1085.955 464.005Q1082.11 462.902 1082.949 458.991L1086.261 443.55Q1087.1 439.639 1090.959 440.691L1160.21 459.578Q1160.21 459.578 1160.21 459.578L1160.21 459.578Q1160.21 459.578 1160.21 459.578Z" fill="#D8FFFF" fill-opacity="0.8" />
<path data-title="D2.6" d="M1158.55 429.669L1152.931 450.728Q1151.9 454.593 1148.043 453.532L1089.287 437.376Q1085.43 436.315 1087.079 432.671L1094.311 416.696Q1095.96 413.052 1099.826 414.078L1158.55 429.669Q1158.55 429.669 1158.55 429.669L1158.55 429.669Q1158.55 429.669 1158.55 429.669Z" fill="#D8FFFF" fill-opacity="0.8" />
<path data-title="D3.3" d="M1345.21 942.564L1355.085 962.787Q1356.84 966.381 1360.409 964.575L1400.351 944.37Q1403.92 942.564 1402.166 938.969L1394.594 923.45Q1392.84 919.855 1389.229 921.576L1345.21 942.564Q1345.21 942.564 1345.21 942.564L1345.21 942.564Q1345.21 942.564 1345.21 942.564Z" fill="#D8FFFF" fill-opacity="0.8" />
<path data-title="D3.5" d="M1330.8 891.607L1330.8 911.978Q1330.8 915.978 1334.798 916.108L1377.762 917.509Q1381.76 917.639 1381.942 913.643L1382.688 897.265Q1382.87 893.269 1378.872 893.141L1330.8 891.607Q1330.8 891.607 1330.8 891.607L1330.8 891.607Q1330.8 891.607 1330.8 891.607Z" fill="#D8FFFF" fill-opacity="0.8" />
<path data-title="D3.6" d="M1331.91 864.467L1331.91 884.837Q1331.91 888.837 1335.908 888.967L1378.872 890.369Q1382.87 890.499 1383.04 886.503L1383.81 868.463Q1383.98 864.467 1379.98 864.467L1331.91 864.467Q1331.91 864.467 1331.91 864.467L1331.91 864.467Q1331.91 864.467 1331.91 864.467Z" fill="#D8FFFF" fill-opacity="0.8" />
<path data-title="D3.8" d="M1336.34 838.988L1336.34 857.697Q1336.34 861.697 1340.34 861.697L1386.07 861.697Q1390.07 861.697 1390.265 857.702L1390.985 842.983Q1391.18 838.988 1387.18 838.988L1336.34 838.988Q1336.34 838.988 1336.34 838.988L1336.34 838.988Q1336.34 838.988 1336.34 838.988Z" fill="#D8FFFF" fill-opacity="0.8" />
<path data-title="D3.9" d="M1382.87 776.399L1365.325 792.524Q1362.38 795.231 1365.146 798.121L1396.724 831.113Q1399.49 834.003 1402.398 831.257L1416.522 817.917Q1419.43 815.171 1416.686 812.261L1382.87 776.399Q1382.87 776.399 1382.87 776.399L1382.87 776.399Q1382.87 776.399 1382.87 776.399Z" fill="#D8FFFF" fill-opacity="0.8" />
<path data-title="D3.10" d="M1448.23 757.567L1424.53 757.567Q1420.53 757.567 1420.53 761.567L1420.53 807.294Q1420.53 811.294 1424.53 811.294L1444.23 811.294Q1448.23 811.294 1448.23 807.294L1448.23 757.567Q1448.23 757.567 1448.23 757.567L1448.23 757.567Q1448.23 757.567 1448.23 757.567Z" fill="#D8FFFF" fill-opacity="0.8" />
<path data-title="D3.11" d="M1475.37 759.229L1453.89 759.229Q1449.89 759.229 1449.89 763.229L1449.89 808.402Q1449.89 812.402 1453.89 812.402L1471.37 812.402Q1475.37 812.402 1475.37 808.402L1475.37 759.229Q1475.37 759.229 1475.37 759.229L1475.37 759.229Q1475.37 759.229 1475.37 759.229Z" fill="#D8FFFF" fill-opacity="0.8" />
<path data-title="D3.12" d="M1503.62 760.891L1481.03 760.891Q1477.03 760.891 1477.03 764.891L1477.03 810.617Q1477.03 814.617 1481.027 814.45L1499.623 813.676Q1503.62 813.509 1503.62 809.509L1503.62 760.891Q1503.62 760.891 1503.62 760.891L1503.62 760.891Q1503.62 760.891 1503.62 760.891Z" fill="#D8FFFF" fill-opacity="0.8" />
<path data-title="D3.15" d="M1530.76 761.998L1510.255 807.099Q1508.6 810.74 1512.178 812.529L1527.182 820.029Q1530.76 821.818 1532.582 818.257L1553.308 777.745Q1555.13 774.184 1551.552 772.395L1530.76 761.998Q1530.76 761.998 1530.76 761.998L1530.76 761.998Q1530.76 761.998 1530.76 761.998Z" fill="#D8FFFF" fill-opacity="0.8" />
<path data-title="D3.16" d="M1559.56 769.753L1537.563 812.719Q1535.74 816.279 1539.301 818.101L1555.999 826.642Q1559.56 828.464 1561.196 824.814L1579.524 783.926Q1581.16 780.276 1577.564 778.524L1559.56 769.753Q1559.56 769.753 1559.56 769.753L1559.56 769.753Q1559.56 769.753 1559.56 769.753Z" fill="#D8FFFF" fill-opacity="0.8" />
<path data-title="D3.18" d="M1586.7 772.522L1567.283 815.95Q1565.65 819.602 1569.193 821.458L1585.367 829.931Q1588.91 831.787 1590.547 828.137L1608.883 787.25Q1610.52 783.6 1606.893 781.913L1586.7 772.522Q1586.7 772.522 1586.7 772.522L1586.7 772.522Q1586.7 772.522 1586.7 772.522Z" fill="#D8FFFF" fill-opacity="0.8" />
<path data-title="D5.1" d="M1602.21 876.098L1644.001 895.464Q1647.63 897.146 1649.206 893.469L1656.024 877.56Q1657.6 873.883 1654.013 872.112L1616.317 853.498Q1612.73 851.727 1611.145 855.399L1602.21 876.098Q1602.21 876.098 1602.21 876.098L1602.21 876.098Q1602.21 876.098 1602.21 876.098Z" fill="#D8FFFF" fill-opacity="0.8" />
<path data-title="D5.2" d="M1624.92 826.803L1616.073 845.883Q1614.39 849.512 1617.994 851.247L1655.656 869.378Q1659.26 871.113 1661.156 867.591L1668.994 853.034Q1670.89 849.512 1667.304 847.74L1624.92 826.803Q1624.92 826.803 1624.92 826.803L1624.92 826.803Q1624.92 826.803 1624.92 826.803Z" fill="#D8FFFF" fill-opacity="0.8" />
<path data-title="D5.3" d="M1634.89 801.878L1627.445 821.403Q1626.02 825.141 1629.625 826.875L1666.175 844.455Q1669.78 846.189 1671.428 842.544L1678.652 826.57Q1680.3 822.925 1676.671 821.243L1634.89 801.878Q1634.89 801.878 1634.89 801.878L1634.89 801.878Q1634.89 801.878 1634.89 801.878Z" fill="#D8FFFF" fill-opacity="0.8" />
<path data-title="D5.5" d="M1674.77 758.121L1656.567 769.318Q1653.16 771.414 1655.266 774.815L1679.864 814.539Q1681.97 817.94 1685.247 815.646L1700.843 804.726Q1704.12 802.432 1701.911 799.097L1674.77 758.121Q1674.77 758.121 1674.77 758.121L1674.77 758.121Q1674.77 758.121 1674.77 758.121Z" fill="#D8FFFF" fill-opacity="0.8" />
<path data-title="D5.6" d="M1699.69 742.059L1681.941 754.201Q1678.64 756.46 1680.813 759.818L1706.937 800.182Q1709.11 803.54 1712.424 801.3L1726.286 791.932Q1729.6 789.692 1727.473 786.304L1699.69 742.059Q1699.69 742.059 1699.69 742.059L1699.69 742.059Q1699.69 742.059 1699.69 742.059Z" fill="#D8FFFF" fill-opacity="0.8" />
<path data-title="D5.8" d="M1721.29 728.211L1706.292 738.664Q1703.01 740.951 1705.099 744.362L1728.061 781.85Q1730.15 785.261 1733.465 783.022L1747.335 773.653Q1750.65 771.414 1748.402 768.106L1721.29 728.211Q1721.29 728.211 1721.29 728.211L1721.29 728.211Q1721.29 728.211 1721.29 728.211Z" fill="#D8FFFF" fill-opacity="0.8" />
<path data-title="D5.9" d="M1743.45 712.149L1727.271 724.165Q1724.06 726.55 1726.24 729.904L1750.68 767.506Q1752.86 770.86 1756.149 768.583L1771.171 758.183Q1774.46 755.906 1772.147 752.642L1743.45 712.149Q1743.45 712.149 1743.45 712.149L1743.45 712.149Q1743.45 712.149 1743.45 712.149Z" fill="#D8FFFF" fill-opacity="0.8" />
<path data-title="D5.10" d="M1767.26 695.532L1748.909 708.708Q1745.66 711.041 1747.959 714.314L1776.041 754.294Q1778.34 757.567 1781.668 755.348L1796.612 745.385Q1799.94 743.166 1797.677 739.868L1767.26 695.532Q1767.26 695.532 1767.26 695.532L1767.26 695.532Q1767.26 695.532 1767.26 695.532Z" fill="#D8FFFF" fill-opacity="0.8" />
<path data-title="B1" d="M877.729 398.097L810.277 399.666Q806.278 399.759 806.152 395.761L804.189 333.414Q804.063 329.416 808.063 329.416L873.729 329.416Q877.729 329.416 877.729 333.416L877.729 398.097Q877.729 398.097 877.729 398.097L877.729 398.097Q877.729 398.097 877.729 398.097Z" fill="#B8C7C8" fill-opacity="0.8" />
<path data-title="G1" d="M1821.67 393.681L1754.219 395.25Q1750.22 395.343 1750.094 391.345L1748.126 328.998Q1748 325 1752 325L1817.67 325Q1821.67 325 1821.67 329L1821.67 393.681Q1821.67 393.681 1821.67 393.681L1821.67 393.681Q1821.67 393.681 1821.67 393.681Z" fill="#9747FF" />
<path data-title="A1.24" d="M869.421 936.471L856.152 939.468Q852.25 940.349 851.481 936.424L842.496 890.547Q841.727 886.622 845.676 885.985L854.948 884.49Q858.897 883.853 859.681 887.775L869.421 936.471Q869.421 936.471 869.421 936.471L869.421 936.471Q869.421 936.471 869.421 936.471Z" fill="#C79A65" fill-opacity="0.8" />
<path data-title="A1.23" d="M889.36 938.687L876.092 941.683Q872.19 942.564 871.46 938.631L862.95 892.77Q862.22 888.837 866.115 887.928L874.942 885.869Q878.837 884.96 879.606 888.885L889.36 938.687Q889.36 938.687 889.36 938.687L889.36 938.687Q889.36 938.687 889.36 938.687Z" fill="#C79A65" fill-opacity="0.8" />
<path data-title="A1.22" d="M908.193 935.364L895.986 938.731Q892.13 939.795 891.304 935.881L882.432 893.859Q881.606 889.945 885.548 889.265L893.727 887.856Q897.669 887.176 898.522 891.084L908.193 935.364Q908.193 935.364 908.193 935.364L908.193 935.364Q908.193 935.364 908.193 935.364Z" fill="#C79A65" fill-opacity="0.8" />
<path data-title="A1.21" d="M927.578 938.133L914.927 939.82Q910.962 940.349 910.212 936.42L902.296 894.982Q901.546 891.053 905.441 890.144L914.267 888.085Q918.162 887.176 918.889 891.109L927.578 938.133Q927.578 938.133 927.578 938.133L927.578 938.133Q927.578 938.133 927.578 938.133Z" fill="#C79A65" fill-opacity="0.8" />
<path data-title="A1.19" d="M947.518 937.579L934.078 942.782Q930.348 944.226 929.648 940.288L922.186 898.314Q921.486 894.376 925.266 893.068L932.107 890.699Q935.887 889.391 936.826 893.279L947.518 937.579Q947.518 937.579 947.518 937.579L947.518 937.579Q947.518 937.579 947.518 937.579Z" fill="#C79A65" fill-opacity="0.8" />
<path data-title="A1.18" d="M966.35 940.903L953.629 943.871Q949.734 944.78 949.199 940.816L943.622 899.448Q943.087 895.484 946.838 894.095L954.291 891.334Q958.042 889.945 958.686 893.893L966.35 940.903Q966.35 940.903 966.35 940.903L966.35 940.903Q966.35 940.903 966.35 940.903Z" fill="#C79A65" fill-opacity="0.8" />
<path data-title="A1.16" d="M985.736 939.795L973.493 943.594Q969.673 944.78 968.954 940.845L960.976 897.203Q960.257 893.268 964.195 892.565L971.828 891.202Q975.766 890.499 976.559 894.42L985.736 939.795Q985.736 939.795 985.736 939.795L985.736 939.795Q985.736 939.795 985.736 939.795Z" fill="#C79A65" fill-opacity="0.8" />
<path data-title="A1.15" d="M1006.23 944.226L992.488 945.514Q988.505 945.887 987.877 941.937L981.379 901.096Q980.751 897.146 984.616 896.115L993.503 893.746Q997.368 892.715 998.046 896.657L1006.23 944.226Q1006.23 944.226 1006.23 944.226L1006.23 944.226Q1006.23 944.226 1006.23 944.226Z" fill="#C79A65" fill-opacity="0.8" />
<path data-title="A1.14" d="M1025.62 944.78L1012.291 948.65Q1008.45 949.765 1007.841 945.812L1001.299 903.314Q1000.69 899.361 1004.546 898.297L1012.894 895.994Q1016.75 894.93 1017.451 898.868L1025.62 944.78Q1025.62 944.78 1025.62 944.78L1025.62 944.78Q1025.62 944.78 1025.62 944.78Z" fill="#C79A65" fill-opacity="0.8" />
<path data-title="A1.13" d="M1044.45 948.657L1031.795 950.344Q1027.83 950.872 1027.241 946.916L1020.669 902.763Q1020.08 898.807 1024.026 898.149L1032.744 896.696Q1036.69 896.038 1037.274 899.995L1044.45 948.657Q1044.45 948.657 1044.45 948.657L1044.45 948.657Q1044.45 948.657 1044.45 948.657Z" fill="#C79A65" fill-opacity="0.8" />
<path data-title="A1.12" d="M1063.83 946.441L1052.043 951.071Q1048.32 952.534 1047.649 948.591L1040.131 904.412Q1039.46 900.469 1043.393 899.741L1050.487 898.427Q1054.42 897.699 1055.178 901.626L1063.83 946.441Q1063.83 946.441 1063.83 946.441L1063.83 946.441Q1063.83 946.441 1063.83 946.441Z" fill="#C79A65" fill-opacity="0.8" />
<path data-title="A1.11" d="M1084.88 952.534L1071.068 955.556Q1067.16 956.411 1066.564 952.456L1059.996 908.855Q1059.4 904.9 1063.273 903.9L1072.697 901.469Q1076.57 900.469 1077.2 904.419L1084.88 952.534Q1084.88 952.534 1084.88 952.534L1084.88 952.534Q1084.88 952.534 1084.88 952.534Z" fill="#C79A65" fill-opacity="0.8" />
<path data-title="A1.10" d="M1103.71 951.98L1090.931 955.815Q1087.1 956.965 1086.504 953.01L1079.936 909.409Q1079.34 905.454 1083.192 904.376L1089.338 902.655Q1093.19 901.577 1094.007 905.493L1103.71 951.98Q1103.71 951.98 1103.71 951.98L1103.71 951.98Q1103.71 951.98 1103.71 951.98Z" fill="#C79A65" fill-opacity="0.8" />
<path data-title="A1.9" d="M1124.21 956.411L1109.923 957.277Q1105.93 957.519 1105.488 953.543L1100.832 911.645Q1100.39 907.669 1104.362 907.193L1110.268 906.484Q1114.24 906.008 1115.016 909.932L1124.21 956.411Q1124.21 956.411 1124.21 956.411L1124.21 956.411Q1124.21 956.411 1124.21 956.411Z" fill="#C79A65" fill-opacity="0.8" />
<path data-title="A1.8" d="M1143.04 953.088L1130.8 956.887Q1126.98 958.073 1126.204 954.149L1117.786 911.594Q1117.01 907.67 1120.818 906.445L1128.702 903.91Q1132.51 902.685 1133.328 906.6L1143.04 953.088Q1143.04 953.088 1143.04 953.088L1143.04 953.088Q1143.04 953.088 1143.04 953.088Z" fill="#C79A65" fill-opacity="0.8" />
<path data-title="A1.6" d="M1162.42 952.534L1149.199 954.666Q1145.25 955.303 1144.483 951.377L1136.607 911.042Q1135.84 907.116 1139.648 905.892L1147.542 903.355Q1151.35 902.131 1152.208 906.038L1162.42 952.534Q1162.42 952.534 1162.42 952.534L1162.42 952.534Q1162.42 952.534 1162.42 952.534Z" fill="#C79A65" fill-opacity="0.8" />
<path data-title="A1.5" d="M1180.15 945.333L1167.91 949.132Q1164.09 950.318 1163.314 946.394L1155.446 906.609Q1154.67 902.685 1158.375 901.176L1165.925 898.101Q1169.63 896.592 1170.474 900.502L1180.15 945.333Q1180.15 945.333 1180.15 945.333L1180.15 945.333Q1180.15 945.333 1180.15 945.333Z" fill="#C79A65" fill-opacity="0.8" />
<path data-title="A1.1" d="M1199.53 940.902L1184.15 940.902Q1180.15 940.902 1179.577 936.943L1174.073 898.889Q1173.5 894.93 1177.318 893.737L1187.412 890.584Q1191.23 889.391 1191.866 893.34L1199.53 940.902Q1199.53 940.902 1199.53 940.902L1199.53 940.902Q1199.53 940.902 1199.53 940.902Z" fill="#C79A65" fill-opacity="0.8" />
<path data-title="A1.54" d="M852.804 853.389L859.785 817.987Q860.559 814.063 864.47 814.901L872.156 816.549Q876.067 817.387 875.304 821.313L869.076 853.34Q868.313 857.266 864.432 856.296L852.804 853.389Q852.804 853.389 852.804 853.389L852.804 853.389Q852.804 853.389 852.804 853.389Z" fill="#C79A65" fill-opacity="0.8" />
<path data-title="A1.53" d="M887.699 857.266L875.047 855.579Q871.082 855.05 871.934 851.142L879.646 815.756Q880.498 811.848 884.409 812.686L892.096 814.333Q896.007 815.171 895.232 819.095L887.699 857.266Q887.699 857.266 887.699 857.266L887.699 857.266Q887.699 857.266 887.699 857.266Z" fill="#C79A65" fill-opacity="0.8" />
<path data-title="A1.52" d="M898.223 813.509L892.192 852.206Q891.576 856.158 895.541 856.687L904.228 857.845Q908.193 858.374 908.859 854.43L914.727 819.669Q915.393 815.725 911.426 815.213L898.223 813.509Q898.223 813.509 898.223 813.509L898.223 813.509Q898.223 813.509 898.223 813.509Z" fill="#C79A65" fill-opacity="0.8" />
<path data-title="A1.51" d="M918.716 811.848L910.668 850.581Q909.854 854.497 913.8 855.154L922.525 856.609Q926.471 857.266 927.095 853.315L932.493 819.122Q933.117 815.171 929.219 814.272L918.716 811.848Q918.716 811.848 918.716 811.848L918.716 811.848Q918.716 811.848 918.716 811.848Z" fill="#C79A65" fill-opacity="0.8" />
<path data-title="A1.50" d="M954.165 814.063L940.393 811.911Q936.441 811.294 935.758 815.235L929.923 848.894Q929.24 852.835 933.153 853.665L943.605 855.882Q947.518 856.712 948.134 852.76L954.165 814.063Q954.165 814.063 954.165 814.063L954.165 814.063Q954.165 814.063 954.165 814.063Z" fill="#C79A65" fill-opacity="0.8" />
<path data-title="A1.39" d="M956.934 810.74L950.4 849.445Q949.734 853.389 953.691 853.975L960.732 855.018Q964.689 855.604 965.372 851.663L971.206 818.004Q971.889 814.063 967.984 813.195L956.934 810.74Q956.934 810.74 956.934 810.74L956.934 810.74Q956.934 810.74 956.934 810.74Z" fill="#C79A65" fill-opacity="0.8" />
<path data-title="A1.38" d="M992.383 814.063L978.627 812.344Q974.658 811.848 973.975 815.789L968.141 849.448Q967.458 853.389 971.413 853.988L981.781 855.559Q985.736 856.158 986.36 852.207L992.383 814.063Q992.383 814.063 992.383 814.063L992.383 814.063Q992.383 814.063 992.383 814.063Z" fill="#C79A65" fill-opacity="0.8" />
<path data-title="A1.36" d="M1011.77 812.402L999.117 810.715Q995.152 810.186 994.46 814.126L988.644 847.233Q987.952 851.173 991.898 851.831L1000.624 853.285Q1004.57 853.943 1005.253 850.002L1011.77 812.402Q1011.77 812.402 1011.77 812.402L1011.77 812.402Q1011.77 812.402 1011.77 812.402Z" fill="#C79A65" fill-opacity="0.8" />
<path data-title="A1.35" d="M1031.71 812.955L1017.932 810.803Q1013.98 810.186 1013.279 814.124L1007.481 846.681Q1006.78 850.619 1010.645 851.65L1019.535 854.02Q1023.4 855.051 1024.175 851.127L1031.71 812.955Q1031.71 812.955 1031.71 812.955L1031.71 812.955Q1031.71 812.955 1031.71 812.955Z" fill="#C79A65" fill-opacity="0.8" />
<path data-title="A1.33" d="M1050.54 812.956L1037.842 810.416Q1033.92 809.632 1033.186 813.564L1026.904 847.242Q1026.17 851.174 1030.087 851.984L1038.313 853.687Q1042.23 854.497 1043.015 850.575L1050.54 812.956Q1050.54 812.956 1050.54 812.956L1050.54 812.956Q1050.54 812.956 1050.54 812.956Z" fill="#C79A65" fill-opacity="0.8" />
<path data-title="A1.32" d="M1069.93 811.848L1057.232 809.308Q1053.31 808.524 1052.515 812.444L1045.795 845.592Q1045 849.512 1048.902 850.393L1058.268 852.508Q1062.17 853.389 1062.905 849.457L1069.93 811.848Q1069.93 811.848 1069.93 811.848L1069.93 811.848Q1069.93 811.848 1069.93 811.848Z" fill="#C79A65" fill-opacity="0.8" />
<path data-title="A1.31" d="M1064.39 850.62L1072.916 812.979Q1073.8 809.078 1077.738 809.781L1085.372 811.145Q1089.31 811.848 1088.476 815.76L1081.284 849.477Q1080.45 853.389 1076.508 852.709L1064.39 850.62Q1064.39 850.62 1064.39 850.62L1064.39 850.62Q1064.39 850.62 1064.39 850.62Z" fill="#C79A65" fill-opacity="0.8" />
<path data-title="A1.30" d="M1082.67 850.62L1091.707 812.968Q1092.64 809.078 1096.605 809.607L1105.285 810.765Q1109.25 811.294 1108.485 815.22L1101.705 850.017Q1100.94 853.943 1097.005 853.227L1082.67 850.62Q1082.67 850.62 1082.67 850.62L1082.67 850.62Q1082.67 850.62 1082.67 850.62Z" fill="#C79A65" fill-opacity="0.8" />
<path data-title="A1.29" d="M1112.02 808.524L1104.485 846.695Q1103.71 850.619 1107.652 851.298L1115.838 852.71Q1119.78 853.389 1120.564 849.467L1127.296 815.77Q1128.08 811.848 1124.163 811.037L1112.02 808.524Q1112.02 808.524 1112.02 808.524L1112.02 808.524Q1112.02 808.524 1112.02 808.524Z" fill="#C79A65" fill-opacity="0.8" />
<path data-title="A1.26" d="M1142.48 851.727L1150.525 813.546Q1151.35 809.632 1155.288 810.335L1162.922 811.699Q1166.86 812.402 1166.125 816.334L1159.835 850.011Q1159.1 853.943 1155.135 853.414L1142.48 851.727Q1142.48 851.727 1142.48 851.727L1142.48 851.727Q1142.48 851.727 1142.48 851.727Z" fill="#C79A65" fill-opacity="0.8" />
<path data-title="F1.1" d="M907.085 395.882L883.937 397.3Q879.944 397.544 879.944 393.544L879.944 328.431Q879.944 324.431 883.941 324.268L903.088 323.486Q907.085 323.323 907.085 327.323L907.085 395.882Q907.085 395.882 907.085 395.882L907.085 395.882Q907.085 395.882 907.085 395.882Z" fill="#938370" fill-opacity="0.8" />
<path data-title="F1.2" d="M911.516 321.108L909.943 391.883Q909.854 395.882 913.854 395.882L933.548 395.882Q937.548 395.882 937.637 391.883L939.121 325.107Q939.21 321.108 935.21 321.108L911.516 321.108Q911.516 321.108 911.516 321.108L911.516 321.108Q911.516 321.108 911.516 321.108Z" fill="#938370" fill-opacity="0.8" />
<path data-title="F1.3" d="M967.458 394.22L944.318 394.22Q940.318 394.22 940.408 390.221L941.889 324.553Q941.979 320.554 945.979 320.554L963.458 320.554Q967.458 320.554 967.458 324.554L967.458 394.22Q967.458 394.22 967.458 394.22L967.458 394.22Q967.458 394.22 967.458 394.22Z" fill="#938370" fill-opacity="0.8" />
<path data-title="F1.9" d="M1071.03 323.877L1071.03 392.99Q1071.03 396.99 1075.03 396.99L1093.62 396.99Q1097.62 396.99 1097.529 392.991L1096.051 327.876Q1095.96 323.877 1091.96 323.877L1071.03 323.877Q1071.03 323.877 1071.03 323.877L1071.03 323.877Q1071.03 323.877 1071.03 323.877Z" fill="#938370" fill-opacity="0.8" />
<path data-title="F1.10" d="M1100.94 324.431L1100.94 394.098Q1100.94 398.098 1104.94 398.098L1123.53 398.098Q1127.53 398.098 1127.53 394.098L1127.53 328.431Q1127.53 324.431 1123.53 324.431L1100.94 324.431Q1100.94 324.431 1100.94 324.431L1100.94 324.431Q1100.94 324.431 1100.94 324.431Z" fill="#938370" fill-opacity="0.8" />
<path data-title="F1.11" d="M1130.85 323.323L1130.85 394.097Q1130.85 398.097 1134.847 397.937L1154.553 397.15Q1158.55 396.99 1158.61 392.99L1159.6 327.323Q1159.66 323.323 1155.66 323.323L1130.85 323.323Q1130.85 323.323 1130.85 323.323L1130.85 323.323Q1130.85 323.323 1130.85 323.323Z" fill="#938370" fill-opacity="0.8" />
<path data-title="F1.12" d="M1165.75 321.662L1163.128 392.439Q1162.98 396.436 1166.98 396.436L1189.44 396.436Q1193.44 396.436 1193.44 392.436L1193.44 325.662Q1193.44 321.662 1189.44 321.662L1165.75 321.662Q1165.75 321.662 1165.75 321.662L1165.75 321.662Q1165.75 321.662 1165.75 321.662Z" fill="#938370" fill-opacity="0.8" />
<path data-title="F1.15" d="M1196.77 321.662L1196.77 392.436Q1196.77 396.436 1200.763 396.192L1219.917 395.018Q1223.91 394.774 1223.91 390.774L1223.91 325.662Q1223.91 321.662 1219.91 321.662L1196.77 321.662Q1196.77 321.662 1196.77 321.662L1196.77 321.662Q1196.77 321.662 1196.77 321.662Z" fill="#938370" fill-opacity="0.8" />
<path data-title="F2.1" d="M1395.61 395.328L1370.25 395.328Q1366.25 395.328 1366.37 391.33L1368.35 325.66Q1368.47 321.662 1372.47 321.662L1392.72 321.662Q1396.72 321.662 1396.66 325.662L1395.61 395.328Q1395.61 395.328 1395.61 395.328L1395.61 395.328Q1395.61 395.328 1395.61 395.328Z" fill="#938370" fill-opacity="0.8" />
<path data-title="F2.2" d="M1400.59 321.662L1399.02 391.329Q1398.93 395.328 1402.93 395.328L1423.73 395.328Q1427.73 395.328 1427.73 391.328L1427.73 325.662Q1427.73 321.662 1423.73 321.662L1400.59 321.662Q1400.59 321.662 1400.59 321.662L1400.59 321.662Q1400.59 321.662 1400.59 321.662Z" fill="#938370" fill-opacity="0.8" />
<path data-title="F2.5" d="M1487 395.882L1463.86 395.882Q1459.86 395.882 1459.86 391.882L1459.86 326.216Q1459.86 322.216 1463.86 322.216L1483 322.216Q1487 322.216 1487 326.216L1487 395.882Q1487 395.882 1487 395.882L1487 395.882Q1487 395.882 1487 395.882Z" fill="#938370" fill-opacity="0.8" />
<path data-title="F2.6" d="M1490.32 322.77L1490.32 391.882Q1490.32 395.882 1494.317 395.725L1514.573 394.931Q1518.57 394.774 1518.508 390.774L1517.522 326.77Q1517.46 322.77 1513.46 322.77L1490.32 322.77Q1490.32 322.77 1490.32 322.77L1490.32 322.77Q1490.32 322.77 1490.32 322.77Z" fill="#938370" fill-opacity="0.8" />
<path data-title="F2.8" d="M1520.79 322.77L1520.79 391.882Q1520.79 395.882 1524.783 395.638L1543.937 394.464Q1547.93 394.22 1547.93 390.22L1547.93 326.77Q1547.93 322.77 1543.93 322.77L1520.79 322.77Q1520.79 322.77 1520.79 322.77L1520.79 322.77Q1520.79 322.77 1520.79 322.77Z" fill="#938370" fill-opacity="0.8" />
<path data-title="F2.9" d="M1586.7 400.313L1563.56 400.313Q1559.56 400.313 1559.62 396.313L1560.61 330.646Q1560.67 326.646 1564.67 326.646L1583.81 326.646Q1587.81 326.646 1587.75 330.646L1586.7 400.313Q1586.7 400.313 1586.7 400.313L1586.7 400.313Q1586.7 400.313 1586.7 400.313Z" fill="#938370" fill-opacity="0.8" />
<path data-title="F2.10" d="M1590.58 324.431L1590.58 394.651Q1590.58 398.651 1594.58 398.651L1614.82 398.651Q1618.82 398.651 1618.731 394.652L1617.249 328.43Q1617.16 324.431 1613.16 324.431L1590.58 324.431Q1590.58 324.431 1590.58 324.431L1590.58 324.431Q1590.58 324.431 1590.58 324.431Z" fill="#938370" fill-opacity="0.8" />
<path data-title="F2.11" d="M1620.49 321.108L1620.49 391.328Q1620.49 395.328 1624.49 395.328L1644.73 395.328Q1648.73 395.328 1648.73 391.328L1648.73 325.108Q1648.73 321.108 1644.73 321.108L1620.49 321.108Q1620.49 321.108 1620.49 321.108L1620.49 321.108Q1620.49 321.108 1620.49 321.108Z" fill="#938370" fill-opacity="0.8" />
<path data-title="F2.12" d="M1652.06 320L1651.01 389.666Q1650.95 393.666 1654.95 393.666L1675.2 393.666Q1679.2 393.666 1679.2 389.666L1679.2 324Q1679.2 320 1675.2 320L1652.06 320Q1652.06 320 1652.06 320L1652.06 320Q1652.06 320 1652.06 320Z" fill="#938370" fill-opacity="0.8" />
<path data-title="F2.15" d="M1682.52 320L1681.47 389.666Q1681.41 393.666 1685.41 393.666L1705.11 393.666Q1709.11 393.666 1709.11 389.666L1709.11 324Q1709.11 320 1705.11 320L1682.52 320Q1682.52 320 1682.52 320L1682.52 320Q1682.52 320 1682.52 320Z" fill="#938370" fill-opacity="0.8" />
<path data-title="F2.16" d="M1712.43 320.554L1712.43 389.666Q1712.43 393.666 1716.43 393.666L1736.68 393.666Q1740.68 393.666 1740.741 389.666L1741.729 324.554Q1741.79 320.554 1737.79 320.554L1712.43 320.554Q1712.43 320.554 1712.43 320.554L1712.43 320.554Q1712.43 320.554 1712.43 320.554Z" fill="#938370" fill-opacity="0.8" />
<path data-title="E2.1" d="M1416.66 414.16L1392.96 414.16Q1388.96 414.16 1388.96 418.16L1388.96 489.365Q1388.96 493.365 1392.952 493.62L1411.008 494.772Q1415 495.027 1415.082 491.028L1416.66 414.16Q1416.66 414.16 1416.66 414.16L1416.66 414.16Q1416.66 414.16 1416.66 414.16Z" fill="#1F4F4B" fill-opacity="0.8" />
<path data-title="E2.2" d="M1443.8 413.606L1422.87 413.606Q1418.87 413.606 1418.787 417.605L1417.293 489.92Q1417.21 493.919 1421.21 493.919L1437.58 493.919Q1441.58 493.919 1441.691 489.921L1443.8 413.606Q1443.8 413.606 1443.8 413.606L1443.8 413.606Q1443.8 413.606 1443.8 413.606Z" fill="#1F4F4B" fill-opacity="0.8" />
<path data-title="E2.3" d="M1470.94 415.822L1449.456 414.888Q1445.46 414.714 1445.375 418.713L1443.885 488.812Q1443.8 492.811 1447.796 492.981L1465.834 493.749Q1469.83 493.919 1469.887 489.919L1470.94 415.822Q1470.94 415.822 1470.94 415.822L1470.94 415.822Q1470.94 415.822 1470.94 415.822Z" fill="#1F4F4B" fill-opacity="0.8" />
<path data-title="E2.5" d="M1496.97 418.037L1477.15 418.037Q1473.15 418.037 1473.093 422.037L1472.097 491.581Q1472.04 495.581 1476.031 495.847L1492.979 496.976Q1496.97 497.242 1496.97 493.242L1496.97 418.037Q1496.97 418.037 1496.97 418.037L1496.97 418.037Q1496.97 418.037 1496.97 418.037Z" fill="#1F4F4B" fill-opacity="0.8" />
<path data-title="E2.6" d="M1525.22 419.145L1503.74 419.145Q1499.74 419.145 1499.74 423.145L1499.74 494.35Q1499.74 498.35 1503.736 498.524L1521.224 499.284Q1525.22 499.458 1525.22 495.458L1525.22 419.145Q1525.22 419.145 1525.22 419.145L1525.22 419.145Q1525.22 419.145 1525.22 419.145Z" fill="#1F4F4B" fill-opacity="0.8" />
<path data-title="E2.8" d="M1552.91 420.807L1531.43 420.807Q1527.43 420.807 1527.43 424.807L1527.43 495.458Q1527.43 499.458 1531.429 499.367L1547.801 498.995Q1551.8 498.904 1551.857 494.904L1552.91 420.807Q1552.91 420.807 1552.91 420.807L1552.91 420.807Q1552.91 420.807 1552.91 420.807Z" fill="#1F4F4B" fill-opacity="0.8" />
<path data-title="E2.9" d="M1563.99 498.35L1563.99 425.361Q1563.99 421.361 1567.99 421.361L1585.47 421.361Q1589.47 421.361 1589.412 425.361L1588.418 494.35Q1588.36 498.35 1584.36 498.35L1563.99 498.35Q1563.99 498.35 1563.99 498.35L1563.99 498.35Q1563.99 498.35 1563.99 498.35Z" fill="#1F4F4B" fill-opacity="0.8" />
<path data-title="E2.10" d="M1590.58 497.242L1592.154 424.252Q1592.24 420.253 1596.24 420.253L1613.72 420.253Q1617.72 420.253 1617.576 424.25L1615.094 493.245Q1614.95 497.242 1610.95 497.242L1590.58 497.242Q1590.58 497.242 1590.58 497.242L1590.58 497.242Q1590.58 497.242 1590.58 497.242Z" fill="#1F4F4B" fill-opacity="0.8" />
<path data-title="E2.11" d="M1644.86 418.037L1623.38 418.037Q1619.38 418.037 1619.295 422.036L1617.805 492.136Q1617.72 496.135 1621.72 496.135L1639.75 496.135Q1643.75 496.135 1643.807 492.135L1644.86 418.037Q1644.86 418.037 1644.86 418.037L1644.86 418.037Q1644.86 418.037 1644.86 418.037Z" fill="#1F4F4B" fill-opacity="0.8" />
<path data-title="E2.12" d="M1646.52 493.919L1646.52 419.822Q1646.52 415.822 1650.516 415.644L1667.444 414.892Q1671.44 414.714 1671.384 418.714L1670.386 489.919Q1670.33 493.919 1666.33 493.919L1646.52 493.919Q1646.52 493.919 1646.52 493.919L1646.52 493.919Q1646.52 493.919 1646.52 493.919Z" fill="#1F4F4B" fill-opacity="0.8" />
<path data-title="E2.15" d="M1673.66 493.365L1673.66 417.606Q1673.66 413.606 1677.66 413.606L1695.69 413.606Q1699.69 413.606 1699.604 417.605L1698.116 487.151Q1698.03 491.15 1694.046 491.512L1673.66 493.365Q1673.66 493.365 1673.66 493.365L1673.66 493.365Q1673.66 493.365 1673.66 493.365Z" fill="#1F4F4B" fill-opacity="0.8" />
<path data-title="E1.1" d="M1792.19 696.086L1806.871 714.557Q1809.36 717.688 1812.37 715.054L1850.66 681.55Q1853.67 678.916 1851.345 675.661L1842.145 662.785Q1839.82 659.53 1836.647 661.965L1792.19 696.086Q1792.19 696.086 1792.19 696.086L1792.19 696.086Q1792.19 696.086 1792.19 696.086Z" fill="#1F4F4B" fill-opacity="0.8" />
<path data-title="E1.2" d="M1823.76 636.821L1779.303 670.942Q1776.13 673.377 1778.389 676.678L1788.271 691.124Q1790.53 694.425 1793.712 692.002L1836.088 659.737Q1839.27 657.314 1836.856 654.125L1823.76 636.821Q1823.76 636.821 1823.76 636.821L1823.76 636.821Q1823.76 636.821 1823.76 636.821Z" fill="#1F4F4B" fill-opacity="0.8" />
<path data-title="E1.3" d="M1833.73 620.758L1788.295 651.738Q1784.99 653.991 1782.826 650.627L1772.194 634.092Q1770.03 630.728 1773.484 628.71L1815.876 603.944Q1819.33 601.926 1821.76 605.104L1833.73 620.758Q1833.73 620.758 1833.73 620.758L1833.73 620.758Q1833.73 620.758 1833.73 620.758Z" fill="#1F4F4B" fill-opacity="0.8" />
<path data-title="E1.5" d="M1812.68 571.463L1766.793 599.823Q1763.39 601.926 1765.311 605.434L1774.209 621.681Q1776.13 625.189 1779.458 622.97L1824.312 593.068Q1827.64 590.849 1825.196 587.682L1812.68 571.463Q1812.68 571.463 1812.68 571.463L1812.68 571.463Q1812.68 571.463 1812.68 571.463Z" fill="#1F4F4B" fill-opacity="0.8" />
<path data-title="E1.6" d="M1820.99 559.277L1773.397 589.797Q1770.03 591.956 1767.793 588.64L1757.317 573.117Q1755.08 569.801 1758.465 567.671L1800.985 540.914Q1804.37 538.784 1806.89 541.891L1820.99 559.277Q1820.99 559.277 1820.99 559.277L1820.99 559.277Q1820.99 559.277 1820.99 559.277Z" fill="#1F4F4B" fill-opacity="0.8" />
<path data-title="E1.8" d="M1768.93 559.831L1757.279 542.125Q1755.08 538.784 1758.442 536.617L1801.568 508.825Q1804.93 506.658 1807.329 509.858L1817.481 523.398Q1819.88 526.598 1816.53 528.783L1768.93 559.831Q1768.93 559.831 1768.93 559.831L1768.93 559.831Q1768.93 559.831 1768.93 559.831Z" fill="#1F4F4B" fill-opacity="0.8" />
<path data-title="E1.9" d="M1778.34 521.059L1766.24 503.839Q1763.94 500.566 1767.303 498.401L1808.767 471.713Q1812.13 469.548 1814.639 472.663L1825.681 486.373Q1828.19 489.488 1824.811 491.628L1778.34 521.059Q1778.34 521.059 1778.34 521.059L1778.34 521.059Q1778.34 521.059 1778.34 521.059Z" fill="#1F4F4B" fill-opacity="0.8" />
<path data-title="E1.11" d="M1773.91 452.378L1759.152 432.86Q1756.74 429.669 1760.193 427.649L1805.357 401.225Q1808.81 399.205 1811.195 402.416L1820.825 415.38Q1823.21 418.591 1819.911 420.852L1773.91 452.378Q1773.91 452.378 1773.91 452.378L1773.91 452.378Q1773.91 452.378 1773.91 452.378Z" fill="#1F4F4B" fill-opacity="0.8" />
</svg>